<?xml version="1.0" encoding="UTF-8" standalone="no" ?>
<!DOCTYPE svg PUBLIC "-//W3C//DTD SVG 1.1//EN" "http://www.w3.org/Graphics/SVG/1.1/DTD/svg11.dtd">
<svg xmlns="http://www.w3.org/2000/svg" xmlns:xlink="http://www.w3.org/1999/xlink" version="1.1" width="1000" height="750" viewBox="0 0 1000 750" xml:space="preserve">
<desc>Created with Fabric.js 5.2.4</desc>
<defs>
</defs>
<rect x="0" y="0" width="100%" height="100%" fill="transparent"></rect>
<g transform="matrix(1 0 0 1 500 375)" id="eb2eb7f1-03db-4dfa-901e-008254528623"  >
<rect style="stroke: none; stroke-width: 1; stroke-dasharray: none; stroke-linecap: butt; stroke-dashoffset: 0; stroke-linejoin: miter; stroke-miterlimit: 4; fill: rgb(255,255,255); fill-rule: nonzero; opacity: 1; visibility: hidden;" vector-effect="non-scaling-stroke"  x="-500" y="-375" rx="0" ry="0" width="1000" height="750" />
</g>
<g transform="matrix(Infinity NaN NaN Infinity 0 0)" id="b4ddd776-6ff4-4363-8b40-c9917e6fc2f2"  >
</g>
<g transform="matrix(0.88 0 0 0.88 500 375)"  >
<g style="" vector-effect="non-scaling-stroke"   >
		<g transform="matrix(1.33 0 0 1.33 0 0)" clip-path="url(#CLIPPATH_75)"  >
<clipPath id="CLIPPATH_75" >
	<path transform="matrix(1 0 0 1 0.01 0.01) translate(-405, -416.67)" id="303212" d="M 0 188.335938 L 810 188.335938 L 810 645 L 0 645 Z M 0 188.335938" stroke-linecap="round" />
</clipPath>
<path style="stroke: none; stroke-width: 1; stroke-dasharray: none; stroke-linecap: butt; stroke-dashoffset: 0; stroke-linejoin: miter; stroke-miterlimit: 4; fill: rgb(213,229,239); fill-rule: nonzero; opacity: 1;" vector-effect="non-scaling-stroke"  transform=" translate(-404.99, -416.66)" d="M 809.980469 317.839844 C 809.925781 316.800781 809.761719 315.789062 809.535156 314.792969 L 809.535156 257.546875 C 809.535156 256.542969 809.382812 255.574219 809.097656 254.660156 C 808.941406 254.152344 808.734375 253.667969 808.496094 253.199219 C 808.398438 253 808.292969 252.808594 808.183594 252.621094 C 806.972656 250.570312 805.039062 249.003906 802.726562 248.285156 C 801.8125 248.003906 800.84375 247.851562 799.839844 247.851562 L 548.050781 247.851562 C 547.714844 247.851562 547.382812 247.867188 547.058594 247.898438 C 544.445312 248.164062 542.140625 249.460938 540.554688 251.375 C 540.355469 251.617188 540.171875 251.863281 539.996094 252.121094 C 539.296875 253.152344 538.792969 254.328125 538.53125 255.589844 C 538.402344 256.222656 538.335938 256.878906 538.335938 257.546875 L 538.335938 330.574219 L 536.40625 324.941406 L 533.523438 325.363281 C 536.101562 322.085938 537.226562 318.171875 536.28125 314.390625 C 534.910156 308.929688 529.585938 305.269531 523.058594 304.585938 L 523.058594 197.875 C 523.058594 192.875 519.019531 188.832031 514.019531 188.832031 L 279.242188 188.832031 C 274.242188 188.832031 270.183594 192.875 270.183594 197.875 L 270.183594 333.015625 L 268.800781 333.816406 C 268.800781 333.816406 265.253906 331.257812 252.875 339.789062 L 252.875 277.519531 C 252.875 272.519531 248.835938 268.476562 243.835938 268.476562 L 9.058594 268.476562 C 4.058594 268.476562 0 272.519531 0 277.519531 L 0 450.0625 C 0 455.0625 4.058594 459.105469 9.058594 459.105469 L 243.835938 459.105469 C 248.835938 459.105469 252.875 455.0625 252.875 450.0625 L 252.875 366.328125 L 254.011719 363.878906 L 270.183594 357.839844 L 270.183594 370.417969 C 270.183594 375.421875 274.242188 379.460938 279.242188 379.460938 L 306.925781 379.460938 C 307.078125 379.917969 307.222656 380.378906 307.382812 380.824219 C 289.855469 379.359375 272.910156 388.910156 266.253906 405.539062 C 258.78125 424.210938 266.859375 445.386719 284.382812 455.53125 L 287.257812 457.875 C 286.871094 457.921875 286.496094 457.972656 286.097656 458.011719 L 285.632812 462.984375 L 277.074219 460.453125 C 259.875 455.371094 241.183594 463.648438 235.480469 479.113281 C 228.292969 498.570312 223.253906 518.402344 220.179688 538.546875 C 217.140625 558.433594 216 578.605469 216.539062 599.0625 C 216.785156 608.078125 217.382812 617.136719 218.273438 626.253906 L 160.09375 626.253906 C 156.46875 626.253906 153.53125 629.195312 153.53125 632.820312 L 153.53125 637.921875 C 153.53125 641.546875 156.46875 644.488281 160.09375 644.488281 L 576.0625 644.488281 C 579.6875 644.488281 582.625 641.546875 582.625 637.921875 L 582.625 632.820312 C 582.625 629.195312 579.6875 626.253906 576.0625 626.253906 L 534.46875 626.253906 L 541.363281 576.351562 L 537.132812 576.351562 L 539.859375 522.261719 L 528.792969 576.351562 L 528.113281 576.351562 L 525.683594 511.863281 L 518.953125 576.351562 L 518.390625 576.351562 L 509.597656 505.914062 L 507.300781 576.351562 L 505.863281 576.351562 L 496.601562 519.757812 L 495.816406 576.351562 L 489.503906 576.351562 L 496.398438 626.253906 L 465.691406 626.253906 L 491.800781 540.765625 C 494.214844 532.859375 489.765625 526.449219 481.863281 526.449219 L 357.574219 526.449219 C 353.023438 526.449219 348.324219 528.582031 344.691406 531.898438 C 345.320312 523.867188 346.210938 515.71875 347.371094 507.445312 C 349.398438 492.863281 339.832031 479.027344 324.371094 474.460938 L 316.289062 472.066406 L 316.367188 471.253906 C 325.527344 472.390625 334.214844 467.742188 337.945312 459.464844 L 339.214844 456.628906 L 342.695312 455.167969 L 347.453125 453.195312 C 349.804688 452.21875 350.367188 449.144531 348.515625 447.199219 L 342.554688 440.929688 C 342.769531 440.390625 343 439.816406 343.175781 439.261719 C 343.882812 437.277344 344.382812 435.246094 344.714844 433.214844 C 344.757812 433.070312 344.808594 432.921875 344.851562 432.777344 C 350.664062 430.964844 355.300781 427.230469 357.425781 421.910156 C 359.660156 416.332031 358.703125 410.105469 355.378906 404.585938 C 374.789062 401.828125 395.511719 392.140625 416.800781 379.460938 L 475.804688 379.460938 L 494.460938 433.984375 L 534.253906 428.152344 L 538.335938 428.679688 L 538.335938 442.59375 C 538.335938 443.265625 538.402344 443.917969 538.53125 444.550781 C 538.664062 445.183594 538.855469 445.792969 539.097656 446.371094 C 539.46875 447.242188 539.960938 448.046875 540.554688 448.765625 C 542.140625 450.679688 544.445312 451.976562 547.058594 452.242188 C 547.382812 452.277344 547.714844 452.292969 548.050781 452.292969 L 590.15625 452.292969 L 621.746094 466.9375 C 628.15625 469.941406 635.75 467.824219 640.6875 461.65625 L 648.105469 452.386719 L 648.183594 452.292969 L 799.839844 452.292969 C 800.84375 452.292969 801.8125 452.140625 802.726562 451.855469 C 805.761719 450.914062 808.15625 448.519531 809.097656 445.480469 C 809.382812 444.570312 809.535156 443.597656 809.535156 442.59375 L 809.535156 317.597656 C 809.683594 317.679688 809.832031 317.75 809.980469 317.839844 Z M 809.980469 317.839844" stroke-linecap="round" />
</g>
		<g transform="matrix(1.33 0 0 1.33 -11.16 -176.68)" clip-path="url(#CLIPPATH_76)"  >
<clipPath id="CLIPPATH_76" >
	<path transform="matrix(1 0 0 1 0.38 0.02) translate(-397, -284.17)" id="e82d33fa58" d="M 270 188.335938 L 524 188.335938 L 524 380 L 270 380 Z M 270 188.335938" stroke-linecap="round" />
</clipPath>
<path style="stroke: none; stroke-width: 1; stroke-dasharray: none; stroke-linecap: butt; stroke-dashoffset: 0; stroke-linejoin: miter; stroke-miterlimit: 4; fill: rgb(213,229,239); fill-rule: nonzero; opacity: 1;" vector-effect="non-scaling-stroke"  transform=" translate(-396.62, -284.15)" d="M 523.058594 197.875 L 523.058594 370.417969 C 523.058594 375.421875 519.019531 379.460938 514.019531 379.460938 L 279.242188 379.460938 C 274.242188 379.460938 270.183594 375.421875 270.183594 370.417969 L 270.183594 197.875 C 270.183594 192.875 274.242188 188.832031 279.242188 188.832031 L 514.019531 188.832031 C 519.019531 188.832031 523.058594 192.875 523.058594 197.875 Z M 523.058594 197.875" stroke-linecap="round" />
</g>
		<g transform="matrix(1.33 0 0 1.33 -11.16 -291.81)" clip-path="url(#CLIPPATH_77)"  >
<clipPath id="CLIPPATH_77" >
	<path transform="matrix(1 0 0 1 0.38 -0.13) translate(-397, -197.67)" id="75" d="M 270 188.335938 L 524 188.335938 L 524 207 L 270 207 Z M 270 188.335938" stroke-linecap="round" />
</clipPath>
<path style="stroke: none; stroke-width: 1; stroke-dasharray: none; stroke-linecap: butt; stroke-dashoffset: 0; stroke-linejoin: miter; stroke-miterlimit: 4; fill: rgb(0,117,178); fill-rule: nonzero; opacity: 1;" vector-effect="non-scaling-stroke"  transform=" translate(-396.62, -197.8)" d="M 523.058594 197.875 L 523.058594 206.773438 L 270.183594 206.773438 L 270.183594 197.875 C 270.183594 192.875 274.242188 188.832031 279.242188 188.832031 L 514.019531 188.832031 C 519.019531 188.832031 523.058594 192.875 523.058594 197.875 Z M 523.058594 197.875" stroke-linecap="round" />
</g>
		<g transform="matrix(1.33 0 0 1.33 -161.48 -291.41)"  >
<path style="stroke: none; stroke-width: 1; stroke-dasharray: none; stroke-linecap: butt; stroke-dashoffset: 0; stroke-linejoin: miter; stroke-miterlimit: 4; fill: rgb(213,229,239); fill-rule: nonzero; opacity: 1;" vector-effect="non-scaling-stroke"  transform=" translate(-283.88, -198.1)" d="M 287.488281 198.101562 C 287.488281 198.582031 287.398438 199.042969 287.214844 199.484375 C 287.03125 199.925781 286.769531 200.316406 286.433594 200.65625 C 286.09375 200.992188 285.703125 201.253906 285.261719 201.4375 C 284.820312 201.621094 284.359375 201.710938 283.878906 201.710938 C 283.402344 201.710938 282.941406 201.621094 282.5 201.4375 C 282.058594 201.253906 281.667969 200.992188 281.328125 200.65625 C 280.992188 200.316406 280.730469 199.925781 280.546875 199.484375 C 280.363281 199.042969 280.273438 198.582031 280.273438 198.101562 C 280.273438 197.625 280.363281 197.164062 280.546875 196.71875 C 280.730469 196.277344 280.992188 195.886719 281.328125 195.546875 C 281.667969 195.210938 282.058594 194.949219 282.5 194.765625 C 282.941406 194.582031 283.402344 194.492188 283.878906 194.492188 C 284.359375 194.492188 284.820312 194.582031 285.261719 194.765625 C 285.703125 194.949219 286.09375 195.210938 286.433594 195.546875 C 286.769531 195.886719 287.03125 196.277344 287.214844 196.71875 C 287.398438 197.164062 287.488281 197.625 287.488281 198.101562 Z M 287.488281 198.101562" stroke-linecap="round" />
</g>
		<g transform="matrix(1.33 0 0 1.33 -145.96 -291.41)"  >
<path style="stroke: none; stroke-width: 1; stroke-dasharray: none; stroke-linecap: butt; stroke-dashoffset: 0; stroke-linejoin: miter; stroke-miterlimit: 4; fill: rgb(213,229,239); fill-rule: nonzero; opacity: 1;" vector-effect="non-scaling-stroke"  transform=" translate(-295.52, -198.1)" d="M 299.128906 198.101562 C 299.128906 198.582031 299.035156 199.042969 298.851562 199.484375 C 298.671875 199.925781 298.410156 200.316406 298.070312 200.65625 C 297.734375 200.992188 297.34375 201.253906 296.898438 201.4375 C 296.457031 201.621094 295.996094 201.710938 295.519531 201.710938 C 295.039062 201.710938 294.578125 201.621094 294.136719 201.4375 C 293.695312 201.253906 293.304688 200.992188 292.96875 200.65625 C 292.628906 200.316406 292.367188 199.925781 292.183594 199.484375 C 292 199.042969 291.910156 198.582031 291.910156 198.101562 C 291.910156 197.625 292 197.164062 292.183594 196.71875 C 292.367188 196.277344 292.628906 195.886719 292.96875 195.546875 C 293.304688 195.210938 293.695312 194.949219 294.136719 194.765625 C 294.578125 194.582031 295.039062 194.492188 295.519531 194.492188 C 295.996094 194.492188 296.457031 194.582031 296.898438 194.765625 C 297.34375 194.949219 297.734375 195.210938 298.070312 195.546875 C 298.410156 195.886719 298.671875 196.277344 298.851562 196.71875 C 299.035156 197.164062 299.128906 197.625 299.128906 198.101562 Z M 299.128906 198.101562" stroke-linecap="round" />
</g>
		<g transform="matrix(1.33 0 0 1.33 -130.45 -291.41)"  >
<path style="stroke: none; stroke-width: 1; stroke-dasharray: none; stroke-linecap: butt; stroke-dashoffset: 0; stroke-linejoin: miter; stroke-miterlimit: 4; fill: rgb(213,229,239); fill-rule: nonzero; opacity: 1;" vector-effect="non-scaling-stroke"  transform=" translate(-307.16, -198.1)" d="M 310.765625 198.101562 C 310.765625 198.582031 310.671875 199.042969 310.488281 199.484375 C 310.304688 199.925781 310.046875 200.316406 309.707031 200.65625 C 309.367188 200.992188 308.976562 201.253906 308.535156 201.4375 C 308.09375 201.621094 307.632812 201.710938 307.15625 201.710938 C 306.675781 201.710938 306.214844 201.621094 305.773438 201.4375 C 305.332031 201.253906 304.941406 200.992188 304.601562 200.65625 C 304.265625 200.316406 304.003906 199.925781 303.820312 199.484375 C 303.636719 199.042969 303.546875 198.582031 303.546875 198.101562 C 303.546875 197.625 303.636719 197.164062 303.820312 196.71875 C 304.003906 196.277344 304.265625 195.886719 304.601562 195.546875 C 304.941406 195.210938 305.332031 194.949219 305.773438 194.765625 C 306.214844 194.582031 306.675781 194.492188 307.15625 194.492188 C 307.632812 194.492188 308.09375 194.582031 308.535156 194.765625 C 308.976562 194.949219 309.367188 195.210938 309.707031 195.546875 C 310.046875 195.886719 310.304688 196.277344 310.488281 196.71875 C 310.671875 197.164062 310.765625 197.625 310.765625 198.101562 Z M 310.765625 198.101562" stroke-linecap="round" />
</g>
		<g transform="matrix(1.33 0 0 1.33 -17.94 -242.08)"  >
<path style="stroke: none; stroke-width: 1; stroke-dasharray: none; stroke-linecap: butt; stroke-dashoffset: 0; stroke-linejoin: miter; stroke-miterlimit: 4; fill: rgb(30,30,73); fill-rule: nonzero; opacity: 1;" vector-effect="non-scaling-stroke"  transform=" translate(-391.53, -235.1)" d="M 384.921875 201.71875 C 388.320312 201.648438 391.601562 202.144531 394.691406 203.109375 C 396.222656 202.933594 397.785156 202.800781 399.386719 202.769531 C 415.726562 202.421875 429.140625 209.988281 429.34375 219.667969 C 429.410156 222.710938 428.160156 225.601562 425.910156 228.144531 C 427.441406 230.308594 428.394531 232.960938 428.457031 235.871094 C 428.613281 243.261719 423.09375 249.378906 416.128906 249.527344 C 415.5625 249.539062 415.019531 249.449219 414.46875 249.382812 C 409.46875 260.445312 398.839844 268.214844 386.34375 268.480469 C 368.722656 268.855469 354.121094 254.214844 353.730469 235.78125 C 353.339844 217.34375 367.304688 202.097656 384.921875 201.71875 Z M 384.921875 201.71875" stroke-linecap="round" />
</g>
		<g transform="matrix(1.33 0 0 1.33 -18.09 -212.41)"  >
<path style="stroke: none; stroke-width: 1; stroke-dasharray: none; stroke-linecap: butt; stroke-dashoffset: 0; stroke-linejoin: miter; stroke-miterlimit: 4; fill: rgb(234,148,35); fill-rule: nonzero; opacity: 1;" vector-effect="non-scaling-stroke"  transform=" translate(-391.42, -257.35)" d="M 417.617188 239.589844 C 417.320312 224.832031 411.035156 217.53125 404.277344 213.832031 C 402.640625 218.367188 398.351562 223.804688 386.941406 224.046875 C 386.941406 224.046875 392.707031 236.574219 382.375 241.824219 C 378.472656 238.015625 372.730469 236.824219 368.789062 239.273438 C 364.40625 241.984375 363.921875 248.148438 367.742188 253.015625 C 369.007812 254.648438 370.585938 255.871094 372.269531 256.769531 L 370.328125 264.363281 L 368.699219 270.683594 L 365.164062 292.179688 L 402.25 300.871094 L 399.476562 274.652344 L 400.023438 271.300781 C 401.679688 271.484375 403.175781 271.414062 404.550781 271.113281 C 413.535156 269.261719 416.445312 257.980469 417.328125 249.4375 C 417.882812 243.949219 417.617188 239.589844 417.617188 239.589844 Z M 417.617188 239.589844" stroke-linecap="round" />
</g>
		<g transform="matrix(1.33 0 0 1.33 -9.09 -234.3)"  >
<path style="stroke: none; stroke-width: 1; stroke-dasharray: none; stroke-linecap: butt; stroke-dashoffset: 0; stroke-linejoin: miter; stroke-miterlimit: 4; fill: rgb(0,117,178); fill-rule: nonzero; opacity: 1;" vector-effect="non-scaling-stroke"  transform=" translate(-398.17, -240.94)" d="M 368.570312 235.714844 C 368.484375 236.175781 368.789062 236.617188 369.25 236.699219 L 387.097656 239.96875 C 387.070312 244.878906 390.828125 249.082031 395.804688 249.507812 C 400.757812 249.933594 405.15625 246.472656 406.003906 241.664062 L 408.730469 241.898438 C 408.746094 246.78125 412.492188 250.941406 417.441406 251.367188 C 422.679688 251.816406 427.304688 247.921875 427.753906 242.679688 C 428.203125 237.441406 424.308594 232.8125 419.074219 232.363281 C 414.121094 231.9375 409.71875 235.402344 408.875 240.210938 L 406.148438 239.976562 C 406.132812 235.09375 402.386719 230.933594 397.433594 230.507812 C 392.511719 230.082031 388.128906 233.507812 387.25 238.273438 L 369.554688 235.035156 C 369.078125 234.9375 368.652344 235.253906 368.570312 235.714844 Z M 410.449219 241.195312 C 410.816406 236.886719 414.621094 233.683594 418.929688 234.054688 C 423.234375 234.421875 426.4375 238.226562 426.066406 242.535156 C 425.699219 246.84375 421.894531 250.046875 417.589844 249.679688 C 413.28125 249.308594 410.078125 245.503906 410.449219 241.195312 Z M 388.8125 239.339844 C 389.179688 235.03125 392.984375 231.824219 397.289062 232.195312 C 401.597656 232.566406 404.800781 236.371094 404.429688 240.679688 C 404.058594 244.988281 400.257812 248.191406 395.949219 247.820312 C 391.644531 247.449219 388.441406 243.644531 388.8125 239.339844 Z M 388.8125 239.339844" stroke-linecap="round" />
</g>
		<g transform="matrix(1.33 0 0 1.33 -42.57 -230.53)"  >
<path style="stroke: none; stroke-width: 1; stroke-dasharray: none; stroke-linecap: butt; stroke-dashoffset: 0; stroke-linejoin: miter; stroke-miterlimit: 4; fill: rgb(234,148,35); fill-rule: nonzero; opacity: 1;" vector-effect="non-scaling-stroke"  transform=" translate(-373.06, -243.76)" d="M 383 238.945312 C 383.308594 239.578125 383.546875 240.238281 383.71875 240.917969 C 383.894531 241.601562 383.996094 242.296875 384.03125 243.003906 C 384.066406 243.707031 384.027344 244.414062 383.921875 245.117188 C 383.8125 245.816406 383.636719 246.503906 383.390625 247.175781 C 383.148438 247.847656 382.839844 248.488281 382.46875 249.105469 C 382.09375 249.71875 381.667969 250.292969 381.179688 250.828125 C 380.695312 251.363281 380.164062 251.847656 379.582031 252.28125 C 379.003906 252.714844 378.386719 253.089844 377.734375 253.40625 C 377.082031 253.722656 376.40625 253.972656 375.707031 254.160156 C 375.007812 254.347656 374.296875 254.464844 373.578125 254.515625 C 372.855469 254.566406 372.140625 254.546875 371.425781 254.457031 C 370.714844 254.367188 370.019531 254.210938 369.339844 253.988281 C 368.664062 253.765625 368.015625 253.476562 367.398438 253.125 C 366.78125 252.773438 366.203125 252.367188 365.671875 251.902344 C 365.136719 251.441406 364.65625 250.929688 364.230469 250.367188 C 363.800781 249.808594 363.433594 249.214844 363.128906 248.578125 C 362.820312 247.945312 362.582031 247.289062 362.40625 246.605469 C 362.234375 245.921875 362.128906 245.230469 362.097656 244.523438 C 362.0625 243.816406 362.101562 243.113281 362.207031 242.410156 C 362.316406 241.707031 362.492188 241.023438 362.734375 240.351562 C 362.980469 239.679688 363.289062 239.035156 363.660156 238.421875 C 364.03125 237.804688 364.460938 237.230469 364.945312 236.699219 C 365.433594 236.164062 365.964844 235.679688 366.542969 235.246094 C 367.125 234.8125 367.742188 234.4375 368.394531 234.121094 C 369.046875 233.804688 369.722656 233.550781 370.421875 233.367188 C 371.121094 233.179688 371.832031 233.058594 372.550781 233.011719 C 373.269531 232.960938 373.988281 232.980469 374.699219 233.070312 C 375.414062 233.15625 376.109375 233.3125 376.789062 233.539062 C 377.464844 233.761719 378.113281 234.050781 378.730469 234.402344 C 379.347656 234.75 379.921875 235.160156 380.457031 235.621094 C 380.988281 236.085938 381.46875 236.597656 381.898438 237.15625 C 382.324219 237.714844 382.695312 238.3125 383 238.945312 Z M 383 238.945312" stroke-linecap="round" />
</g>
		<g transform="matrix(1.33 0 0 1.33 -30.13 -171.07)"  >
<path style="stroke: none; stroke-width: 1; stroke-dasharray: none; stroke-linecap: butt; stroke-dashoffset: 0; stroke-linejoin: miter; stroke-miterlimit: 4; fill: rgb(30,30,73); fill-rule: nonzero; opacity: 1;" vector-effect="non-scaling-stroke"  transform=" translate(-382.39, -288.36)" d="M 358.675781 286.386719 L 358.675781 271.335938 C 358.675781 267.964844 362.269531 265.816406 365.238281 267.414062 L 381.667969 276.265625 C 384.910156 278.011719 387.121094 281.207031 387.617188 284.855469 L 388.621094 292.222656 L 392.019531 283.804688 C 392.949219 281.492188 394.460938 279.460938 396.40625 277.90625 L 402.335938 273.160156 C 403.964844 271.859375 406.347656 273.195312 406.089844 275.261719 L 404.140625 290.789062 L 384.9375 309.839844 Z M 358.675781 286.386719" stroke-linecap="round" />
</g>
		<g transform="matrix(1.33 0 0 1.33 12.04 -120.47)"  >
<path style="stroke: none; stroke-width: 1; stroke-dasharray: none; stroke-linecap: butt; stroke-dashoffset: 0; stroke-linejoin: miter; stroke-miterlimit: 4; fill: rgb(0,117,178); fill-rule: nonzero; opacity: 1;" vector-effect="non-scaling-stroke"  transform=" translate(-414.02, -326.31)" d="M 505.007812 310.882812 L 447.246094 339.824219 C 445.101562 319.882812 440.929688 302.34375 431.921875 290.511719 C 425.59375 281.199219 415.769531 279.765625 404.921875 280.632812 C 391.621094 296.136719 375.417969 289 358.101562 273.15625 L 343.539062 276.511719 C 322.640625 281.328125 307.371094 299.375 306.214844 320.800781 C 305.140625 340.734375 307.402344 360.253906 312.128906 379.460938 L 474.46875 379.460938 L 522.085938 332.46875 Z M 505.007812 310.882812" stroke-linecap="round" />
</g>
		<g transform="matrix(1.33 0 0 1.33 151.57 -130.47)"  >
<path style="stroke: none; stroke-width: 1; stroke-dasharray: none; stroke-linecap: butt; stroke-dashoffset: 0; stroke-linejoin: miter; stroke-miterlimit: 4; fill: rgb(234,148,35); fill-rule: nonzero; opacity: 1;" vector-effect="non-scaling-stroke"  transform=" translate(-518.66, -318.81)" d="M 536.28125 314.390625 C 536.394531 314.839844 536.476562 315.292969 536.53125 315.753906 C 536.585938 316.210938 536.613281 316.675781 536.609375 317.140625 C 536.605469 317.609375 536.574219 318.078125 536.515625 318.546875 C 536.453125 319.015625 536.367188 319.484375 536.25 319.953125 C 536.132812 320.421875 535.988281 320.890625 535.8125 321.351562 C 535.640625 321.8125 535.441406 322.273438 535.210938 322.722656 C 534.984375 323.175781 534.730469 323.621094 534.453125 324.058594 C 534.171875 324.496094 533.871094 324.925781 533.539062 325.34375 C 533.210938 325.761719 532.859375 326.167969 532.484375 326.5625 C 532.109375 326.960938 531.714844 327.34375 531.296875 327.710938 C 530.878906 328.078125 530.441406 328.433594 529.988281 328.773438 C 529.53125 329.109375 529.058594 329.433594 528.566406 329.738281 C 528.078125 330.042969 527.570312 330.328125 527.050781 330.597656 C 526.53125 330.863281 526 331.113281 525.457031 331.34375 C 524.914062 331.570312 524.359375 331.78125 523.796875 331.96875 C 523.234375 332.15625 522.664062 332.320312 522.085938 332.46875 C 521.507812 332.613281 520.929688 332.734375 520.34375 332.835938 C 519.757812 332.933594 519.171875 333.011719 518.582031 333.066406 C 517.996094 333.121094 517.410156 333.152344 516.824219 333.160156 C 516.242188 333.171875 515.660156 333.15625 515.085938 333.117188 C 514.507812 333.082031 513.9375 333.019531 513.378906 332.9375 C 512.816406 332.855469 512.265625 332.75 511.722656 332.621094 C 511.179688 332.492188 510.652344 332.34375 510.132812 332.171875 C 509.617188 332 509.113281 331.804688 508.628906 331.589844 C 508.140625 331.378906 507.671875 331.144531 507.21875 330.890625 C 506.765625 330.636719 506.332031 330.363281 505.917969 330.070312 C 505.503906 329.78125 505.113281 329.472656 504.742188 329.144531 C 504.371094 328.820312 504.023438 328.476562 503.699219 328.117188 C 503.375 327.761719 503.074219 327.390625 502.800781 327.003906 C 502.523438 326.617188 502.277344 326.21875 502.054688 325.808594 C 501.832031 325.398438 501.636719 324.976562 501.46875 324.546875 C 501.300781 324.117188 501.160156 323.675781 501.046875 323.230469 C 500.9375 322.78125 500.851562 322.328125 500.796875 321.871094 C 500.742188 321.410156 500.714844 320.949219 500.71875 320.480469 C 500.722656 320.011719 500.753906 319.546875 500.8125 319.074219 C 500.875 318.605469 500.960938 318.136719 501.078125 317.667969 C 501.195312 317.199219 501.339844 316.734375 501.515625 316.269531 C 501.6875 315.808594 501.886719 315.351562 502.117188 314.898438 C 502.34375 314.445312 502.597656 314 502.875 313.5625 C 503.15625 313.125 503.460938 312.699219 503.789062 312.277344 C 504.117188 311.859375 504.46875 311.453125 504.84375 311.058594 C 505.21875 310.664062 505.613281 310.28125 506.03125 309.910156 C 506.449219 309.542969 506.886719 309.1875 507.34375 308.851562 C 507.796875 308.511719 508.269531 308.191406 508.761719 307.886719 C 509.25 307.582031 509.757812 307.292969 510.277344 307.027344 C 510.796875 306.757812 511.328125 306.507812 511.871094 306.28125 C 512.414062 306.050781 512.96875 305.84375 513.53125 305.652344 C 514.09375 305.464844 514.664062 305.300781 515.242188 305.15625 C 515.820312 305.011719 516.398438 304.886719 516.984375 304.789062 C 517.570312 304.6875 518.15625 304.609375 518.746094 304.554688 C 519.332031 304.5 519.917969 304.46875 520.503906 304.460938 C 521.089844 304.453125 521.667969 304.464844 522.242188 304.503906 C 522.820312 304.542969 523.390625 304.601562 523.949219 304.683594 C 524.511719 304.769531 525.0625 304.875 525.605469 305 C 526.148438 305.128906 526.675781 305.28125 527.195312 305.453125 C 527.710938 305.625 528.214844 305.816406 528.699219 306.03125 C 529.1875 306.246094 529.660156 306.476562 530.109375 306.730469 C 530.5625 306.984375 530.996094 307.257812 531.410156 307.550781 C 531.824219 307.84375 532.214844 308.152344 532.585938 308.476562 C 532.957031 308.804688 533.304688 309.144531 533.628906 309.503906 C 533.953125 309.859375 534.253906 310.234375 534.527344 310.617188 C 534.804688 311.003906 535.050781 311.402344 535.273438 311.8125 C 535.496094 312.222656 535.691406 312.644531 535.859375 313.074219 C 536.027344 313.507812 536.167969 313.945312 536.28125 314.390625 Z M 536.28125 314.390625" stroke-linecap="round" />
</g>
		<g transform="matrix(1.33 0 0 1.33 358.59 -88.78)"  >
<path style="stroke: none; stroke-width: 1; stroke-dasharray: none; stroke-linecap: butt; stroke-dashoffset: 0; stroke-linejoin: miter; stroke-miterlimit: 4; fill: rgb(213,229,239); fill-rule: nonzero; opacity: 1;" vector-effect="non-scaling-stroke"  transform=" translate(-673.94, -350.07)" d="M 809.535156 257.546875 L 809.535156 442.59375 C 809.535156 447.957031 805.199219 452.292969 799.839844 452.292969 L 548.050781 452.292969 C 542.6875 452.292969 538.335938 447.957031 538.335938 442.59375 L 538.335938 257.546875 C 538.335938 252.183594 542.6875 247.851562 548.050781 247.851562 L 799.839844 247.851562 C 805.199219 247.851562 809.535156 252.183594 809.535156 257.546875 Z M 809.535156 257.546875" stroke-linecap="round" />
</g>
		<g transform="matrix(1.33 0 0 1.33 358.59 -212.25)"  >
<path style="stroke: none; stroke-width: 1; stroke-dasharray: none; stroke-linecap: butt; stroke-dashoffset: 0; stroke-linejoin: miter; stroke-miterlimit: 4; fill: rgb(0,117,178); fill-rule: nonzero; opacity: 1;" vector-effect="non-scaling-stroke"  transform=" translate(-673.94, -257.47)" d="M 809.535156 257.546875 L 809.535156 267.089844 L 538.335938 267.089844 L 538.335938 257.546875 C 538.335938 252.183594 542.6875 247.851562 548.050781 247.851562 L 799.839844 247.851562 C 805.199219 247.851562 809.535156 252.183594 809.535156 257.546875 Z M 809.535156 257.546875" stroke-linecap="round" />
</g>
		<g transform="matrix(1.33 0 0 1.33 197.38 -211.83)"  >
<path style="stroke: none; stroke-width: 1; stroke-dasharray: none; stroke-linecap: butt; stroke-dashoffset: 0; stroke-linejoin: miter; stroke-miterlimit: 4; fill: rgb(213,229,239); fill-rule: nonzero; opacity: 1;" vector-effect="non-scaling-stroke"  transform=" translate(-553.03, -257.79)" d="M 556.898438 257.789062 C 556.898438 258.304688 556.796875 258.796875 556.601562 259.273438 C 556.40625 259.746094 556.125 260.164062 555.761719 260.527344 C 555.398438 260.890625 554.980469 261.171875 554.507812 261.367188 C 554.03125 261.5625 553.539062 261.664062 553.027344 261.664062 C 552.511719 261.664062 552.019531 261.5625 551.542969 261.367188 C 551.070312 261.171875 550.652344 260.890625 550.289062 260.527344 C 549.925781 260.164062 549.644531 259.746094 549.449219 259.273438 C 549.253906 258.796875 549.15625 258.304688 549.15625 257.789062 C 549.15625 257.277344 549.253906 256.78125 549.449219 256.308594 C 549.644531 255.832031 549.925781 255.414062 550.289062 255.050781 C 550.652344 254.6875 551.070312 254.40625 551.542969 254.210938 C 552.019531 254.015625 552.511719 253.917969 553.027344 253.917969 C 553.539062 253.917969 554.03125 254.015625 554.507812 254.210938 C 554.980469 254.40625 555.398438 254.6875 555.761719 255.050781 C 556.125 255.414062 556.40625 255.832031 556.601562 256.308594 C 556.796875 256.78125 556.898438 257.277344 556.898438 257.789062 Z M 556.898438 257.789062" stroke-linecap="round" />
</g>
		<g transform="matrix(1.33 0 0 1.33 214.02 -211.83)"  >
<path style="stroke: none; stroke-width: 1; stroke-dasharray: none; stroke-linecap: butt; stroke-dashoffset: 0; stroke-linejoin: miter; stroke-miterlimit: 4; fill: rgb(213,229,239); fill-rule: nonzero; opacity: 1;" vector-effect="non-scaling-stroke"  transform=" translate(-565.51, -257.79)" d="M 569.378906 257.789062 C 569.378906 258.304688 569.277344 258.796875 569.082031 259.273438 C 568.886719 259.746094 568.605469 260.164062 568.242188 260.527344 C 567.878906 260.890625 567.460938 261.171875 566.988281 261.367188 C 566.511719 261.5625 566.019531 261.664062 565.507812 261.664062 C 564.992188 261.664062 564.5 261.5625 564.023438 261.367188 C 563.550781 261.171875 563.132812 260.890625 562.769531 260.527344 C 562.40625 260.164062 562.125 259.746094 561.929688 259.273438 C 561.734375 258.796875 561.636719 258.304688 561.636719 257.789062 C 561.636719 257.277344 561.734375 256.78125 561.929688 256.308594 C 562.125 255.832031 562.40625 255.414062 562.769531 255.050781 C 563.132812 254.6875 563.550781 254.40625 564.023438 254.210938 C 564.5 254.015625 564.992188 253.917969 565.507812 253.917969 C 566.019531 253.917969 566.511719 254.015625 566.988281 254.210938 C 567.460938 254.40625 567.878906 254.6875 568.242188 255.050781 C 568.605469 255.414062 568.886719 255.832031 569.082031 256.308594 C 569.28125 256.78125 569.378906 257.277344 569.378906 257.789062 Z M 569.378906 257.789062" stroke-linecap="round" />
</g>
		<g transform="matrix(1.33 0 0 1.33 230.66 -211.83)"  >
<path style="stroke: none; stroke-width: 1; stroke-dasharray: none; stroke-linecap: butt; stroke-dashoffset: 0; stroke-linejoin: miter; stroke-miterlimit: 4; fill: rgb(213,229,239); fill-rule: nonzero; opacity: 1;" vector-effect="non-scaling-stroke"  transform=" translate(-577.99, -257.79)" d="M 581.859375 257.789062 C 581.859375 258.304688 581.761719 258.796875 581.5625 259.273438 C 581.367188 259.746094 581.085938 260.164062 580.722656 260.527344 C 580.363281 260.890625 579.941406 261.171875 579.46875 261.367188 C 578.996094 261.5625 578.5 261.664062 577.988281 261.664062 C 577.472656 261.664062 576.980469 261.5625 576.503906 261.367188 C 576.03125 261.171875 575.613281 260.890625 575.25 260.527344 C 574.886719 260.164062 574.605469 259.746094 574.410156 259.273438 C 574.214844 258.796875 574.117188 258.304688 574.117188 257.789062 C 574.117188 257.277344 574.214844 256.78125 574.410156 256.308594 C 574.605469 255.832031 574.886719 255.414062 575.25 255.050781 C 575.613281 254.6875 576.03125 254.40625 576.503906 254.210938 C 576.980469 254.015625 577.472656 253.917969 577.988281 253.917969 C 578.5 253.917969 578.996094 254.015625 579.46875 254.210938 C 579.941406 254.40625 580.363281 254.6875 580.722656 255.050781 C 581.085938 255.414062 581.367188 255.832031 581.5625 256.308594 C 581.761719 256.78125 581.859375 257.277344 581.859375 257.789062 Z M 581.859375 257.789062" stroke-linecap="round" />
</g>
		<g transform="matrix(1.33 0 0 1.33 418.14 -158.77)"  >
<path style="stroke: none; stroke-width: 1; stroke-dasharray: none; stroke-linecap: butt; stroke-dashoffset: 0; stroke-linejoin: miter; stroke-miterlimit: 4; fill: rgb(30,30,73); fill-rule: nonzero; opacity: 1;" vector-effect="non-scaling-stroke"  transform=" translate(-718.6, -297.58)" d="M 636.4375 292.289062 C 631.832031 289.898438 628.5 286.066406 627.511719 281.285156 C 625.472656 271.414062 634.140625 261.273438 646.871094 258.640625 C 649.878906 258.019531 652.839844 257.886719 655.640625 258.15625 C 658.46875 256.726562 661.515625 255.613281 664.777344 254.9375 C 683.96875 250.96875 702.625 262.742188 706.445312 281.234375 C 707.0625 284.214844 707.210938 287.183594 707.023438 290.089844 C 707.699219 290.105469 708.324219 290.164062 708.859375 290.261719 C 714.304688 291.25 718.972656 294.628906 723.410156 297.941406 C 727.84375 301.257812 732.449219 304.691406 737.867188 305.832031 C 746.058594 307.550781 754.253906 303.734375 762.109375 300.835938 C 771.386719 297.417969 781.539062 295.179688 791.140625 297.554688 C 800.738281 299.925781 809.464844 307.960938 809.980469 317.839844 C 804.675781 314.574219 797.550781 316.5 792.574219 320.246094 C 787.601562 323.992188 784.03125 329.269531 779.621094 333.664062 C 775.207031 338.058594 769.28125 341.738281 763.117188 340.875 C 754.4375 339.664062 748.71875 330.082031 740.027344 328.945312 C 735.679688 328.378906 731.398438 330.058594 727.125 331.050781 C 722.851562 332.042969 717.828125 332.160156 714.65625 329.125 C 711.25 325.867188 711.410156 320.488281 711.609375 315.777344 C 711.808594 311.066406 711.398438 305.539062 707.472656 302.925781 C 706.5625 302.320312 705.375 301.984375 704.105469 301.738281 C 699.605469 311.667969 690.386719 319.46875 678.613281 321.90625 C 659.417969 325.875 640.761719 314.101562 636.941406 295.609375 C 636.710938 294.5 636.550781 293.394531 636.4375 292.289062 Z M 636.4375 292.289062" stroke-linecap="round" />
</g>
		<g transform="matrix(1.33 0 0 1.33 363.46 -112.7)"  >
<path style="stroke: none; stroke-width: 1; stroke-dasharray: none; stroke-linecap: butt; stroke-dashoffset: 0; stroke-linejoin: miter; stroke-miterlimit: 4; fill: rgb(234,148,35); fill-rule: nonzero; opacity: 1;" vector-effect="non-scaling-stroke"  transform=" translate(-677.59, -332.13)" d="M 690.046875 316.953125 L 692.324219 327.976562 C 689.222656 339.28125 681.164062 346.28125 669.636719 350.285156 L 662.851562 317.425781 L 679.496094 313.984375 C 681.558594 316.296875 685.378906 317.019531 690.046875 316.953125 Z M 690.046875 316.953125" stroke-linecap="round" />
</g>
		<g transform="matrix(1.33 0 0 1.33 339.92 -153.06)"  >
<path style="stroke: none; stroke-width: 1; stroke-dasharray: none; stroke-linecap: butt; stroke-dashoffset: 0; stroke-linejoin: miter; stroke-miterlimit: 4; fill: rgb(234,148,35); fill-rule: nonzero; opacity: 1;" vector-effect="non-scaling-stroke"  transform=" translate(-659.93, -301.86)" d="M 690.046875 316.96875 L 683.804688 320.441406 L 669.332031 328.449219 L 665.164062 328.582031 L 665.140625 328.578125 L 661.375 328.710938 L 656.175781 328.867188 C 649.011719 329.09375 642.660156 325.351562 639.625 319.40625 C 639.015625 318.246094 638.558594 317.015625 638.230469 315.714844 L 637.589844 313.136719 L 634.894531 311.394531 L 631.175781 309.027344 C 629.359375 307.839844 629.359375 305.191406 631.203125 303.84375 L 637.144531 299.480469 C 637.03125 298.992188 636.925781 298.476562 636.871094 297.976562 C 636.578125 296.222656 636.460938 294.4375 636.46875 292.683594 C 636.46875 292.574219 636.472656 292.46875 636.480469 292.335938 C 636.652344 285.382812 639.203125 278.847656 642.667969 274.851562 C 642.25 282.820312 648.535156 288.4375 656.015625 289.050781 C 655.761719 290.710938 656.003906 292.34375 656.527344 293.832031 C 657.140625 295.484375 658.125 296.960938 659.335938 298.09375 C 661.886719 300.582031 665.339844 301.609375 667.929688 299.707031 C 668.25 299.304688 668.585938 298.960938 668.929688 298.675781 C 671.160156 296.59375 673.265625 296.695312 675.324219 297.59375 C 677.382812 298.574219 679.011719 300.277344 679.890625 302.347656 C 681.191406 305.289062 681.128906 308.351562 678.222656 311.875 C 678.515625 312.710938 678.929688 313.386719 679.496094 313.996094 C 681.554688 316.300781 685.386719 317.023438 690.046875 316.96875 Z M 690.046875 316.96875" stroke-linecap="round" />
</g>
		<g transform="matrix(1.33 0 0 1.33 254.26 -38.02)"  >
<path style="stroke: none; stroke-width: 1; stroke-dasharray: none; stroke-linecap: butt; stroke-dashoffset: 0; stroke-linejoin: miter; stroke-miterlimit: 4; fill: rgb(234,148,35); fill-rule: nonzero; opacity: 1;" vector-effect="non-scaling-stroke"  transform=" translate(-595.69, -388.14)" d="M 515.519531 363.511719 L 520.621094 384.757812 L 559.707031 388.628906 L 628.761719 418.902344 L 647.683594 427.214844 C 651.71875 428.996094 655.890625 428.820312 659.453125 426.949219 L 675.855469 366.757812 L 659.15625 356.824219 L 650.964844 382.929688 C 648.621094 390.398438 642.347656 394.441406 635.808594 392.636719 L 635.21875 392.480469 L 563.875 372.953125 C 563.875 372.953125 553.46875 349.105469 543.128906 347.894531 C 532.796875 346.71875 546.683594 362.089844 546.683594 362.089844 Z M 515.519531 363.511719" stroke-linecap="round" />
</g>
		<g transform="matrix(1.33 0 0 1.33 370.1 -39.94)"  >
<path style="stroke: none; stroke-width: 1; stroke-dasharray: none; stroke-linecap: butt; stroke-dashoffset: 0; stroke-linejoin: miter; stroke-miterlimit: 4; fill: rgb(0,117,178); fill-rule: nonzero; opacity: 1;" vector-effect="non-scaling-stroke"  transform=" translate(-682.56, -386.71)" d="M 731.855469 452.285156 L 645.507812 452.285156 L 638.5625 424.382812 L 634.011719 406.167969 C 633.289062 403.304688 633.097656 400.324219 633.425781 397.40625 L 633.441406 397.289062 C 633.527344 396.425781 633.683594 395.546875 633.875 394.699219 C 633.875 394.699219 633.890625 394.648438 633.925781 394.546875 C 634.734375 391.683594 646.921875 349.324219 661.367188 337.253906 L 659.9375 332.128906 L 696.347656 321.125 L 696.949219 335.542969 C 698.792969 336.648438 700.585938 337.941406 702.292969 339.527344 C 705.308594 342.304688 708.066406 345.859375 710.480469 350.289062 C 710.480469 350.289062 710.480469 350.308594 710.5 350.308594 C 717.359375 362.984375 726.304688 415.792969 731.855469 452.285156 Z M 731.855469 452.285156" stroke-linecap="round" />
</g>
		<g transform="matrix(1.33 0 0 1.33 358.01 -4.95)" clip-path="url(#CLIPPATH_78)"  >
<clipPath id="CLIPPATH_78" >
	<rect transform="matrix(1 0 0 1 0.5 -0.45)" clip-path="url(#undefined)" x="-36" y="-41.5" rx="0" ry="0" width="72" height="83" />
</clipPath>
<path style="stroke: none; stroke-width: 1; stroke-dasharray: none; stroke-linecap: butt; stroke-dashoffset: 0; stroke-linejoin: miter; stroke-miterlimit: 4; fill: rgb(30,30,73); fill-rule: nonzero; opacity: 1;" vector-effect="non-scaling-stroke"  transform=" translate(-35.5, -41.95)" d="M 11.089844 65.027344 L 4.945312 81.285156 L 69.785156 78.546875 L 64.503906 2.609375 L 7.707031 15.707031 L 1.210938 48.085938 Z M 11.089844 65.027344" stroke-linecap="round" />
</g>
		<g transform="matrix(1.33 0 0 1.33 358.01 -4.95)" clip-path="url(#CLIPPATH_79)"  >
<clipPath id="CLIPPATH_79" >
	<rect transform="matrix(1 0 0 1 0.5 -0.45)" id="f2f1ca14b4" clip-path="url(#undefined)" x="-36" y="-41.5" rx="0" ry="0" width="72" height="83" />
</clipPath>
<path style="stroke: none; stroke-width: 1; stroke-dasharray: none; stroke-linecap: butt; stroke-dashoffset: 0; stroke-linejoin: miter; stroke-miterlimit: 4; fill: rgb(30,30,73); fill-rule: nonzero; opacity: 1;" vector-effect="non-scaling-stroke"  transform=" translate(-35.5, -41.95)" d="M 11.089844 65.027344 L 4.945312 81.285156 L 69.785156 78.546875 L 64.503906 2.609375 L 7.707031 15.707031 L 1.210938 48.085938 Z M 11.089844 65.027344" stroke-linecap="round" />
</g>
		<g transform="matrix(1.33 0 0 1.33 249.52 7.43)"  >
<path style="stroke: none; stroke-width: 1; stroke-dasharray: none; stroke-linecap: butt; stroke-dashoffset: 0; stroke-linejoin: miter; stroke-miterlimit: 4; fill: rgb(234,148,35); fill-rule: nonzero; opacity: 1;" vector-effect="non-scaling-stroke"  transform=" translate(-592.13, -422.23)" d="M 500.277344 415.625 C 500.8125 420.519531 504.097656 424.253906 508.355469 424.804688 L 539.5625 428.835938 L 621.746094 466.9375 C 628.15625 469.941406 635.75 467.824219 640.6875 461.65625 L 648.105469 452.386719 L 684.054688 407.347656 L 671.816406 393.269531 L 656.9375 376.171875 L 637.203125 415.085938 L 631.175781 427.003906 C 629.125 431.074219 625.808594 433.914062 622.117188 435.113281 C 619.738281 435.902344 617.195312 435.980469 614.742188 435.25 L 545.890625 414.816406 C 545.890625 414.816406 538.847656 392.875 528.742188 391.410156 C 518.605469 389.941406 530.28125 404.359375 530.28125 404.359375 L 508.839844 404.472656 C 503.738281 404.5 499.640625 409.832031 500.277344 415.625 Z M 500.277344 415.625" stroke-linecap="round" />
</g>
		<g transform="matrix(1.33 0 0 1.33 352.52 -37.68)"  >
<path style="stroke: none; stroke-width: 1; stroke-dasharray: none; stroke-linecap: butt; stroke-dashoffset: 0; stroke-linejoin: miter; stroke-miterlimit: 4; fill: rgb(0,117,178); fill-rule: nonzero; opacity: 1;" vector-effect="non-scaling-stroke"  transform=" translate(-669.38, -388.4)" d="M 635.417969 398.25 L 685.070312 426.734375 L 701.558594 384.910156 C 706.394531 372.636719 701.089844 358.882812 689.226562 352.949219 C 675.855469 346.257812 659.335938 351.640625 652.53125 364.898438 Z M 635.417969 398.25" stroke-linecap="round" />
</g>
		<g transform="matrix(1.33 0 0 1.33 147.26 -49.6)"  >
<path style="stroke: none; stroke-width: 1; stroke-dasharray: none; stroke-linecap: butt; stroke-dashoffset: 0; stroke-linejoin: miter; stroke-miterlimit: 4; fill: rgb(154,187,80); fill-rule: nonzero; opacity: 1;" vector-effect="non-scaling-stroke"  transform=" translate(-515.44, -379.46)" d="M 494.460938 433.984375 L 569.9375 422.921875 L 536.40625 324.941406 L 460.933594 336.003906 Z M 494.460938 433.984375" stroke-linecap="round" />
</g>
		<g transform="matrix(1.33 0 0 1.33 249.52 7.43)"  >
<path style="stroke: none; stroke-width: 1; stroke-dasharray: none; stroke-linecap: butt; stroke-dashoffset: 0; stroke-linejoin: miter; stroke-miterlimit: 4; fill: rgb(234,148,35); fill-rule: nonzero; opacity: 1;" vector-effect="non-scaling-stroke"  transform=" translate(-592.13, -422.23)" d="M 500.277344 415.625 C 500.8125 420.519531 504.097656 424.253906 508.355469 424.804688 L 539.5625 428.835938 L 621.746094 466.9375 C 628.15625 469.941406 635.75 467.824219 640.6875 461.65625 L 648.105469 452.386719 L 684.054688 407.347656 L 671.816406 393.269531 L 656.9375 376.171875 L 637.203125 415.085938 L 631.175781 427.003906 C 629.125 431.074219 625.808594 433.914062 622.117188 435.113281 C 619.738281 435.902344 617.195312 435.980469 614.742188 435.25 L 545.890625 414.816406 C 545.890625 414.816406 538.847656 392.875 528.742188 391.410156 C 518.605469 389.941406 530.28125 404.359375 530.28125 404.359375 L 508.839844 404.472656 C 503.738281 404.5 499.640625 409.832031 500.277344 415.625 Z M 500.277344 415.625" stroke-linecap="round" />
</g>
		<g transform="matrix(1.33 0 0 1.33 352.52 -37.68)"  >
<path style="stroke: none; stroke-width: 1; stroke-dasharray: none; stroke-linecap: butt; stroke-dashoffset: 0; stroke-linejoin: miter; stroke-miterlimit: 4; fill: rgb(0,117,178); fill-rule: nonzero; opacity: 1;" vector-effect="non-scaling-stroke"  transform=" translate(-669.38, -388.4)" d="M 635.417969 398.25 L 685.070312 426.734375 L 701.558594 384.910156 C 706.394531 372.636719 701.089844 358.882812 689.226562 352.949219 C 675.855469 346.257812 659.335938 351.640625 652.53125 364.898438 Z M 635.417969 398.25" stroke-linecap="round" />
</g>
		<g transform="matrix(1.33 0 0 1.33 68.68 -95.94)"  >
<path style="stroke: none; stroke-width: 1; stroke-dasharray: none; stroke-linecap: butt; stroke-dashoffset: 0; stroke-linejoin: miter; stroke-miterlimit: 4; fill: rgb(234,148,35); fill-rule: nonzero; opacity: 1;" vector-effect="non-scaling-stroke"  transform=" translate(-456.5, -344.71)" d="M 474.117188 340.289062 C 474.230469 340.738281 474.3125 341.191406 474.367188 341.648438 C 474.421875 342.109375 474.449219 342.570312 474.449219 343.039062 C 474.445312 343.507812 474.414062 343.972656 474.351562 344.445312 C 474.292969 344.914062 474.203125 345.382812 474.085938 345.851562 C 473.96875 346.320312 473.824219 346.785156 473.652344 347.25 C 473.476562 347.710938 473.277344 348.167969 473.050781 348.621094 C 472.824219 349.074219 472.570312 349.519531 472.289062 349.957031 C 472.011719 350.394531 471.707031 350.820312 471.378906 351.242188 C 471.050781 351.660156 470.699219 352.066406 470.324219 352.460938 C 469.949219 352.855469 469.550781 353.238281 469.132812 353.609375 C 468.714844 353.976562 468.28125 354.332031 467.824219 354.667969 C 467.367188 355.007812 466.894531 355.328125 466.40625 355.632812 C 465.914062 355.9375 465.410156 356.226562 464.890625 356.492188 C 464.371094 356.761719 463.839844 357.011719 463.292969 357.238281 C 462.75 357.46875 462.195312 357.679688 461.632812 357.867188 C 461.070312 358.054688 460.5 358.21875 459.921875 358.363281 C 459.347656 358.507812 458.765625 358.632812 458.179688 358.730469 C 457.59375 358.832031 457.007812 358.910156 456.421875 358.964844 C 455.832031 359.019531 455.246094 359.050781 454.664062 359.058594 C 454.078125 359.066406 453.496094 359.054688 452.921875 359.015625 C 452.347656 358.976562 451.777344 358.917969 451.214844 358.835938 C 450.652344 358.75 450.101562 358.644531 449.558594 358.519531 C 449.019531 358.390625 448.488281 358.238281 447.972656 358.066406 C 447.453125 357.894531 446.953125 357.703125 446.464844 357.488281 C 445.976562 357.273438 445.507812 357.042969 445.054688 356.789062 C 444.601562 356.535156 444.167969 356.261719 443.753906 355.96875 C 443.339844 355.679688 442.949219 355.367188 442.578125 355.042969 C 442.207031 354.714844 441.859375 354.375 441.535156 354.015625 C 441.210938 353.660156 440.910156 353.285156 440.636719 352.902344 C 440.363281 352.515625 440.113281 352.117188 439.890625 351.707031 C 439.667969 351.296875 439.472656 350.875 439.304688 350.445312 C 439.136719 350.011719 438.996094 349.574219 438.886719 349.128906 C 438.773438 348.679688 438.691406 348.226562 438.636719 347.765625 C 438.578125 347.308594 438.554688 346.84375 438.554688 346.378906 C 438.558594 345.910156 438.589844 345.441406 438.652344 344.972656 C 438.710938 344.503906 438.800781 344.035156 438.917969 343.566406 C 439.035156 343.097656 439.179688 342.628906 439.351562 342.167969 C 439.527344 341.707031 439.726562 341.246094 439.953125 340.796875 C 440.179688 340.34375 440.433594 339.898438 440.714844 339.460938 C 440.992188 339.023438 441.296875 338.59375 441.625 338.175781 C 441.953125 337.757812 442.304688 337.351562 442.679688 336.957031 C 443.054688 336.558594 443.453125 336.175781 443.871094 335.808594 C 444.285156 335.441406 444.722656 335.085938 445.179688 334.746094 C 445.636719 334.410156 446.109375 334.085938 446.597656 333.78125 C 447.089844 333.476562 447.59375 333.191406 448.113281 332.921875 C 448.632812 332.65625 449.164062 332.40625 449.707031 332.175781 C 450.253906 331.949219 450.804688 331.738281 451.371094 331.550781 C 451.933594 331.363281 452.503906 331.199219 453.078125 331.050781 C 453.65625 330.90625 454.238281 330.785156 454.824219 330.683594 C 455.410156 330.585938 455.996094 330.507812 456.582031 330.453125 C 457.171875 330.398438 457.757812 330.367188 458.339844 330.359375 C 458.925781 330.347656 459.507812 330.363281 460.082031 330.402344 C 460.65625 330.4375 461.226562 330.5 461.789062 330.582031 C 462.351562 330.664062 462.902344 330.769531 463.445312 330.898438 C 463.984375 331.027344 464.515625 331.175781 465.03125 331.347656 C 465.550781 331.519531 466.050781 331.714844 466.539062 331.929688 C 467.027344 332.140625 467.496094 332.375 467.949219 332.628906 C 468.402344 332.882812 468.835938 333.15625 469.25 333.449219 C 469.660156 333.738281 470.054688 334.046875 470.425781 334.375 C 470.796875 334.699219 471.144531 335.042969 471.46875 335.402344 C 471.792969 335.757812 472.089844 336.128906 472.367188 336.515625 C 472.640625 336.902344 472.890625 337.300781 473.113281 337.710938 C 473.335938 338.121094 473.53125 338.542969 473.699219 338.972656 C 473.867188 339.402344 474.007812 339.84375 474.117188 340.289062 Z M 474.117188 340.289062" stroke-linecap="round" />
</g>
		<g transform="matrix(1.33 0 0 1.33 -41.57 -101.99)" clip-path="url(#CLIPPATH_80)"  >
<clipPath id="CLIPPATH_80" >
	<path transform="matrix(1 0 0 1 -0.1 -0.17) translate(-51.71, -41)" id="837" clip-path="url(#undefined)" d="M 0.417969 1 L 103 1 L 103 81 L 0.417969 81 Z M 0.417969 1" stroke-linecap="round" />
</clipPath>
<path style="stroke: none; stroke-width: 1; stroke-dasharray: none; stroke-linecap: butt; stroke-dashoffset: 0; stroke-linejoin: miter; stroke-miterlimit: 4; fill: rgb(30,30,73); fill-rule: nonzero; opacity: 1;" vector-effect="non-scaling-stroke"  transform=" translate(-51.81, -41.17)" d="M 102.859375 80.460938 L 0.757812 80.460938 L 3.382812 10.839844 L 94.589844 1.871094 C 102.003906 14.925781 102.960938 46.210938 102.859375 80.460938 Z M 102.859375 80.460938" stroke-linecap="round" />
</g>
		<g transform="matrix(1.33 0 0 1.33 -41.57 -101.99)" clip-path="url(#CLIPPATH_81)"  >
<clipPath id="CLIPPATH_81" >
	<path transform="matrix(1 0 0 1 -0.1 -0.17) translate(-51.71, -41)" id="8" clip-path="url(#undefined)" d="M 0.417969 1 L 103 1 L 103 81 L 0.417969 81 Z M 0.417969 1" stroke-linecap="round" />
</clipPath>
<path style="stroke: none; stroke-width: 1; stroke-dasharray: none; stroke-linecap: butt; stroke-dashoffset: 0; stroke-linejoin: miter; stroke-miterlimit: 4; fill: rgb(30,30,73); fill-rule: nonzero; opacity: 1;" vector-effect="non-scaling-stroke"  transform=" translate(-51.81, -41.17)" d="M 102.859375 80.460938 L 0.757812 80.460938 L 3.382812 10.839844 L 94.589844 1.871094 C 102.003906 14.925781 102.960938 46.210938 102.859375 80.460938 Z M 102.859375 80.460938" stroke-linecap="round" />
</g>
		<g transform="matrix(1.33 0 0 1.33 -38.42 -88.45)"  >
<path style="stroke: none; stroke-width: 1; stroke-dasharray: none; stroke-linecap: butt; stroke-dashoffset: 0; stroke-linejoin: miter; stroke-miterlimit: 4; fill: rgb(0,117,178); fill-rule: nonzero; opacity: 1;" vector-effect="non-scaling-stroke"  transform=" translate(-376.18, -350.33)" d="M 355.433594 306.90625 L 351.613281 358.082031 C 380.664062 344.625 410.359375 336.234375 440.71875 333.050781 L 449.351562 358.523438 C 406.554688 387.488281 364.476562 412.679688 328.917969 403.460938 C 301.675781 395.757812 296.617188 350.335938 310.417969 307.996094 C 313.273438 299.25 322.136719 293.929688 331.195312 295.542969 L 349.09375 298.734375 C 352.992188 299.429688 355.730469 302.957031 355.433594 306.90625 Z M 355.433594 306.90625" stroke-linecap="round" />
</g>
		<g transform="matrix(1.33 0 0 1.33 -41.98 -248.59)"  >
<path style="stroke: none; stroke-width: 1; stroke-dasharray: none; stroke-linecap: butt; stroke-dashoffset: 0; stroke-linejoin: miter; stroke-miterlimit: 4; fill: rgb(154,187,80); fill-rule: nonzero; opacity: 1;" vector-effect="non-scaling-stroke"  transform=" translate(-373.5, -230.22)" d="M 392.300781 202.511719 C 367.019531 203.910156 365.636719 227.257812 365.625 227.492188 C 365.621094 227.578125 365.65625 227.65625 365.664062 227.738281 C 358.246094 228.730469 352.523438 235.070312 352.523438 242.761719 C 352.523438 251.140625 359.3125 257.933594 367.6875 257.933594 C 376.066406 257.933594 382.855469 251.140625 382.855469 242.761719 C 382.855469 235.078125 377.144531 228.746094 369.742188 227.742188 C 369.742188 227.722656 369.753906 227.707031 369.753906 227.691406 C 369.792969 226.878906 371.023438 207.828125 392.53125 206.636719 C 393.667969 206.574219 394.542969 205.597656 394.480469 204.460938 C 394.414062 203.320312 393.496094 202.441406 392.300781 202.511719 Z M 392.300781 202.511719" stroke-linecap="round" />
</g>
		<g transform="matrix(1.33 0 0 1.33 -371.4 -70.49)"  >
<path style="stroke: none; stroke-width: 1; stroke-dasharray: none; stroke-linecap: butt; stroke-dashoffset: 0; stroke-linejoin: miter; stroke-miterlimit: 4; fill: rgb(213,229,239); fill-rule: nonzero; opacity: 1;" vector-effect="non-scaling-stroke"  transform=" translate(-126.44, -363.79)" d="M 252.875 277.519531 L 252.875 450.0625 C 252.875 455.0625 248.835938 459.105469 243.835938 459.105469 L 9.058594 459.105469 C 4.058594 459.105469 0 455.0625 0 450.0625 L 0 277.519531 C 0 272.519531 4.058594 268.476562 9.058594 268.476562 L 243.835938 268.476562 C 248.835938 268.476562 252.875 272.519531 252.875 277.519531 Z M 252.875 277.519531" stroke-linecap="round" />
</g>
		<g transform="matrix(1.33 0 0 1.33 -371.4 -185.62)"  >
<path style="stroke: none; stroke-width: 1; stroke-dasharray: none; stroke-linecap: butt; stroke-dashoffset: 0; stroke-linejoin: miter; stroke-miterlimit: 4; fill: rgb(0,117,178); fill-rule: nonzero; opacity: 1;" vector-effect="non-scaling-stroke"  transform=" translate(-126.44, -277.45)" d="M 252.875 277.519531 L 252.875 286.414062 L 0 286.414062 L 0 277.519531 C 0 272.519531 4.058594 268.476562 9.058594 268.476562 L 243.835938 268.476562 C 248.835938 268.476562 252.875 272.519531 252.875 277.519531 Z M 252.875 277.519531" stroke-linecap="round" />
</g>
		<g transform="matrix(1.33 0 0 1.33 -521.72 -185.22)"  >
<path style="stroke: none; stroke-width: 1; stroke-dasharray: none; stroke-linecap: butt; stroke-dashoffset: 0; stroke-linejoin: miter; stroke-miterlimit: 4; fill: rgb(213,229,239); fill-rule: nonzero; opacity: 1;" vector-effect="non-scaling-stroke"  transform=" translate(-13.7, -277.74)" d="M 17.304688 277.746094 C 17.304688 278.222656 17.214844 278.683594 17.03125 279.125 C 16.847656 279.570312 16.589844 279.960938 16.25 280.296875 C 15.910156 280.636719 15.519531 280.898438 15.078125 281.082031 C 14.636719 281.265625 14.175781 281.355469 13.699219 281.355469 C 13.21875 281.355469 12.757812 281.265625 12.316406 281.082031 C 11.875 280.898438 11.484375 280.636719 11.144531 280.296875 C 10.808594 279.960938 10.546875 279.570312 10.363281 279.125 C 10.179688 278.683594 10.089844 278.222656 10.089844 277.746094 C 10.089844 277.265625 10.179688 276.804688 10.363281 276.363281 C 10.546875 275.921875 10.808594 275.53125 11.144531 275.191406 C 11.484375 274.851562 11.875 274.59375 12.316406 274.410156 C 12.757812 274.226562 13.21875 274.132812 13.699219 274.132812 C 14.175781 274.132812 14.636719 274.226562 15.078125 274.410156 C 15.519531 274.59375 15.910156 274.851562 16.25 275.191406 C 16.589844 275.53125 16.847656 275.921875 17.03125 276.363281 C 17.214844 276.804688 17.304688 277.265625 17.304688 277.746094 Z M 17.304688 277.746094" stroke-linecap="round" />
</g>
		<g transform="matrix(1.33 0 0 1.33 -506.21 -185.22)"  >
<path style="stroke: none; stroke-width: 1; stroke-dasharray: none; stroke-linecap: butt; stroke-dashoffset: 0; stroke-linejoin: miter; stroke-miterlimit: 4; fill: rgb(213,229,239); fill-rule: nonzero; opacity: 1;" vector-effect="non-scaling-stroke"  transform=" translate(-25.34, -277.74)" d="M 28.945312 277.746094 C 28.945312 278.222656 28.851562 278.683594 28.671875 279.125 C 28.488281 279.570312 28.226562 279.960938 27.886719 280.296875 C 27.550781 280.636719 27.160156 280.898438 26.71875 281.082031 C 26.273438 281.265625 25.816406 281.355469 25.335938 281.355469 C 24.855469 281.355469 24.398438 281.265625 23.953125 281.082031 C 23.511719 280.898438 23.121094 280.636719 22.785156 280.296875 C 22.445312 279.960938 22.183594 279.570312 22 279.125 C 21.820312 278.683594 21.726562 278.222656 21.726562 277.746094 C 21.726562 277.265625 21.820312 276.804688 22 276.363281 C 22.183594 275.921875 22.445312 275.53125 22.785156 275.191406 C 23.121094 274.851562 23.511719 274.59375 23.953125 274.410156 C 24.398438 274.226562 24.855469 274.132812 25.335938 274.132812 C 25.816406 274.132812 26.273438 274.226562 26.71875 274.410156 C 27.160156 274.59375 27.550781 274.851562 27.886719 275.191406 C 28.226562 275.53125 28.488281 275.921875 28.671875 276.363281 C 28.851562 276.804688 28.945312 277.265625 28.945312 277.746094 Z M 28.945312 277.746094" stroke-linecap="round" />
</g>
		<g transform="matrix(1.33 0 0 1.33 -490.69 -185.22)"  >
<path style="stroke: none; stroke-width: 1; stroke-dasharray: none; stroke-linecap: butt; stroke-dashoffset: 0; stroke-linejoin: miter; stroke-miterlimit: 4; fill: rgb(213,229,239); fill-rule: nonzero; opacity: 1;" vector-effect="non-scaling-stroke"  transform=" translate(-36.97, -277.74)" d="M 40.582031 277.746094 C 40.582031 278.222656 40.492188 278.683594 40.308594 279.125 C 40.125 279.570312 39.863281 279.960938 39.527344 280.296875 C 39.1875 280.636719 38.796875 280.898438 38.355469 281.082031 C 37.914062 281.265625 37.453125 281.355469 36.972656 281.355469 C 36.496094 281.355469 36.035156 281.265625 35.59375 281.082031 C 35.152344 280.898438 34.761719 280.636719 34.421875 280.296875 C 34.082031 279.960938 33.824219 279.570312 33.640625 279.125 C 33.457031 278.683594 33.363281 278.222656 33.363281 277.746094 C 33.363281 277.265625 33.457031 276.804688 33.640625 276.363281 C 33.824219 275.921875 34.082031 275.53125 34.421875 275.191406 C 34.761719 274.851562 35.152344 274.59375 35.59375 274.410156 C 36.035156 274.226562 36.496094 274.132812 36.972656 274.132812 C 37.453125 274.132812 37.914062 274.226562 38.355469 274.410156 C 38.796875 274.59375 39.1875 274.851562 39.527344 275.191406 C 39.863281 275.53125 40.125 275.921875 40.308594 276.363281 C 40.492188 276.804688 40.582031 277.265625 40.582031 277.746094 Z M 40.582031 277.746094" stroke-linecap="round" />
</g>
		<g transform="matrix(1.33 0 0 1.33 -212.07 -61.49)"  >
<path style="stroke: none; stroke-width: 1; stroke-dasharray: none; stroke-linecap: butt; stroke-dashoffset: 0; stroke-linejoin: miter; stroke-miterlimit: 4; fill: rgb(234,148,35); fill-rule: nonzero; opacity: 1;" vector-effect="non-scaling-stroke"  transform=" translate(-245.93, -370.55)" d="M 282.636719 325.804688 L 268.800781 333.816406 C 268.800781 333.816406 262.753906 329.425781 238.820312 351.175781 L 235.839844 356.804688 L 204.378906 395.003906 L 229.902344 415.734375 L 254.011719 363.878906 L 272.148438 357.105469 C 277.238281 355.203125 281.128906 351.007812 282.636719 345.789062 L 287.355469 329.5 C 288.164062 326.703125 285.15625 324.34375 282.636719 325.804688 Z M 282.636719 325.804688" stroke-linecap="round" />
</g>
		<g transform="matrix(1.33 0 0 1.33 -424.95 -94.23)"  >
<path style="stroke: none; stroke-width: 1; stroke-dasharray: none; stroke-linecap: butt; stroke-dashoffset: 0; stroke-linejoin: miter; stroke-miterlimit: 4; fill: rgb(30,30,73); fill-rule: nonzero; opacity: 1;" vector-effect="non-scaling-stroke"  transform=" translate(-86.28, -345.99)" d="M 158.515625 307.183594 C 158.792969 313.914062 156.804688 320.1875 153.199219 325.324219 C 152.792969 325.898438 152.386719 326.46875 151.945312 327.039062 C 151.535156 327.519531 151.152344 327.964844 150.742188 328.414062 C 151.269531 332.273438 151.425781 336.054688 151.203125 339.605469 C 151.203125 339.605469 151.203125 339.605469 151.203125 339.636719 C 151.109375 341.085938 150.953125 342.480469 150.699219 343.84375 C 149.890625 348.867188 148.132812 353.253906 145.28125 356.480469 C 143.957031 358.011719 142.347656 359.3125 140.511719 360.28125 C 137.226562 361.988281 133.160156 362.707031 128.179688 362.113281 C 123.214844 363.367188 120.125 366.082031 118.054688 369.585938 C 112.441406 379.054688 114.117188 394.292969 106.519531 402.644531 C 101.148438 406.097656 95.253906 408.683594 89.046875 410.417969 C 88.984375 410.421875 88.953125 410.421875 88.894531 410.453125 C 88.863281 410.457031 88.800781 410.457031 88.773438 410.488281 C 88.742188 410.492188 88.679688 410.492188 88.648438 410.527344 C 75.195312 414.160156 60.34375 413.851562 46.550781 410.078125 C 34.316406 406.761719 22.953125 400.734375 14.175781 392.347656 C 10.863281 356.082031 60.421875 356.71875 76.300781 332.75 C 86.371094 317.179688 84.8125 289.003906 106.117188 283.136719 C 109.402344 282.136719 112.589844 281.820312 115.648438 282.125 C 119.328125 280.25 123.433594 279.09375 127.828125 278.914062 C 144.085938 278.242188 157.84375 290.886719 158.515625 307.183594 Z M 158.515625 307.183594" stroke-linecap="round" />
</g>
		<g transform="matrix(1.33 0 0 1.33 -342 -11.61)"  >
<path style="stroke: none; stroke-width: 1; stroke-dasharray: none; stroke-linecap: butt; stroke-dashoffset: 0; stroke-linejoin: miter; stroke-miterlimit: 4; fill: rgb(0,117,178); fill-rule: nonzero; opacity: 1;" vector-effect="non-scaling-stroke"  transform=" translate(-148.49, -407.96)" d="M 235.597656 402.417969 C 229.980469 417.183594 224.515625 427.460938 206.378906 435.101562 C 188.8125 433.496094 180.695312 425.410156 173.816406 416.476562 L 163.144531 458.953125 L 69.660156 458.953125 C 46.042969 385.191406 80.453125 368.460938 80.453125 368.460938 C 87.65625 362.960938 97.484375 359.304688 113.945312 356.957031 C 124.789062 368.839844 126.859375 372.667969 139.441406 356.957031 C 144.527344 357.542969 149.492188 358.542969 154.335938 359.925781 C 173.710938 365.441406 190.898438 376.929688 204.292969 390.503906 L 218.015625 375.757812 Z M 235.597656 402.417969" stroke-linecap="round" />
</g>
		<g transform="matrix(1.33 0 0 1.33 -337.37 -115.69)"  >
<path style="stroke: none; stroke-width: 1; stroke-dasharray: none; stroke-linecap: butt; stroke-dashoffset: 0; stroke-linejoin: miter; stroke-miterlimit: 4; fill: rgb(154,187,80); fill-rule: nonzero; opacity: 1;" vector-effect="non-scaling-stroke"  transform=" translate(-151.96, -329.89)" d="M 160.8125 329.894531 C 160.8125 330.421875 160.757812 330.949219 160.644531 331.46875 C 160.53125 331.992188 160.363281 332.496094 160.140625 332.988281 C 159.917969 333.476562 159.644531 333.941406 159.324219 334.382812 C 159 334.824219 158.632812 335.234375 158.222656 335.609375 C 157.8125 335.984375 157.363281 336.320312 156.878906 336.613281 C 156.398438 336.910156 155.886719 337.160156 155.351562 337.363281 C 154.8125 337.566406 154.261719 337.71875 153.691406 337.824219 C 153.121094 337.925781 152.542969 337.976562 151.964844 337.976562 C 151.382812 337.976562 150.808594 337.925781 150.238281 337.824219 C 149.667969 337.71875 149.113281 337.566406 148.578125 337.363281 C 148.039062 337.160156 147.53125 336.910156 147.046875 336.617188 C 146.5625 336.320312 146.117188 335.984375 145.703125 335.609375 C 145.292969 335.234375 144.925781 334.824219 144.605469 334.382812 C 144.28125 333.941406 144.007812 333.476562 143.785156 332.988281 C 143.5625 332.496094 143.394531 331.992188 143.28125 331.46875 C 143.167969 330.949219 143.113281 330.421875 143.113281 329.894531 C 143.113281 329.363281 143.167969 328.835938 143.28125 328.316406 C 143.394531 327.792969 143.5625 327.289062 143.785156 326.796875 C 144.007812 326.308594 144.28125 325.84375 144.605469 325.402344 C 144.925781 324.960938 145.292969 324.550781 145.703125 324.175781 C 146.117188 323.800781 146.5625 323.464844 147.046875 323.171875 C 147.53125 322.875 148.039062 322.625 148.578125 322.421875 C 149.113281 322.21875 149.667969 322.066406 150.238281 321.964844 C 150.808594 321.859375 151.382812 321.808594 151.964844 321.808594 C 152.542969 321.808594 153.121094 321.859375 153.691406 321.964844 C 154.261719 322.066406 154.8125 322.21875 155.351562 322.421875 C 155.886719 322.625 156.398438 322.875 156.878906 323.171875 C 157.363281 323.464844 157.8125 323.800781 158.222656 324.175781 C 158.632812 324.550781 159 324.960938 159.324219 325.402344 C 159.644531 325.84375 159.917969 326.308594 160.140625 326.796875 C 160.363281 327.289062 160.53125 327.792969 160.644531 328.316406 C 160.757812 328.835938 160.8125 329.363281 160.8125 329.894531 Z M 160.8125 329.894531" stroke-linecap="round" />
</g>
		<g transform="matrix(1.33 0 0 1.33 -372.51 -114.02)"  >
<path style="stroke: none; stroke-width: 1; stroke-dasharray: none; stroke-linecap: butt; stroke-dashoffset: 0; stroke-linejoin: miter; stroke-miterlimit: 4; fill: rgb(234,148,35); fill-rule: nonzero; opacity: 1;" vector-effect="non-scaling-stroke"  transform=" translate(-125.61, -331.15)" d="M 143.667969 348.371094 C 142.378906 348.964844 140.933594 349.351562 139.257812 349.53125 L 139.953125 361.117188 C 135.527344 369.148438 129.53125 372.183594 121.433594 368.476562 C 115.96875 365.976562 112.332031 360.640625 111.402344 354.699219 L 110.863281 351.285156 L 110.039062 346.050781 L 110.089844 345.558594 L 108.878906 345.378906 L 108.878906 341.328125 C 107.023438 340.8125 105.21875 339.960938 103.617188 338.644531 C 98.820312 334.695312 97.945312 328.53125 101.660156 324.917969 C 104.984375 321.667969 110.890625 321.589844 115.53125 324.480469 C 124.53125 317.074219 116.152344 306.03125 116.152344 306.03125 C 127.292969 303.324219 130.308594 297.054688 130.929688 292.253906 C 138.355469 294.394531 146.117188 300.203125 149.625 314.597656 C 149.625 314.597656 157.492188 342.179688 143.667969 348.371094 Z M 143.667969 348.371094" stroke-linecap="round" />
</g>
		<g transform="matrix(1.33 0 0 1.33 -396.65 -99.61)"  >
<path style="stroke: none; stroke-width: 1; stroke-dasharray: none; stroke-linecap: butt; stroke-dashoffset: 0; stroke-linejoin: miter; stroke-miterlimit: 4; fill: rgb(154,187,80); fill-rule: nonzero; opacity: 1;" vector-effect="non-scaling-stroke"  transform=" translate(-107.5, -341.95)" d="M 116.355469 341.953125 C 116.355469 342.484375 116.300781 343.007812 116.1875 343.53125 C 116.074219 344.050781 115.90625 344.554688 115.683594 345.046875 C 115.460938 345.539062 115.1875 346.003906 114.863281 346.445312 C 114.542969 346.886719 114.175781 347.292969 113.761719 347.667969 C 113.351562 348.046875 112.90625 348.378906 112.421875 348.675781 C 111.9375 348.96875 111.429688 349.21875 110.890625 349.421875 C 110.355469 349.625 109.800781 349.777344 109.230469 349.882812 C 108.660156 349.984375 108.085938 350.039062 107.503906 350.039062 C 106.921875 350.039062 106.347656 349.984375 105.777344 349.882812 C 105.207031 349.777344 104.65625 349.625 104.117188 349.421875 C 103.582031 349.21875 103.070312 348.96875 102.585938 348.675781 C 102.105469 348.378906 101.65625 348.046875 101.246094 347.667969 C 100.835938 347.292969 100.46875 346.886719 100.144531 346.445312 C 99.824219 346.003906 99.550781 345.539062 99.328125 345.046875 C 99.105469 344.554688 98.9375 344.050781 98.824219 343.53125 C 98.710938 343.007812 98.652344 342.484375 98.652344 341.953125 C 98.652344 341.421875 98.710938 340.894531 98.824219 340.375 C 98.9375 339.855469 99.105469 339.347656 99.328125 338.859375 C 99.550781 338.367188 99.824219 337.902344 100.144531 337.460938 C 100.46875 337.019531 100.835938 336.609375 101.246094 336.234375 C 101.65625 335.859375 102.105469 335.523438 102.585938 335.230469 C 103.070312 334.933594 103.582031 334.6875 104.117188 334.484375 C 104.65625 334.28125 105.207031 334.125 105.777344 334.023438 C 106.347656 333.917969 106.921875 333.867188 107.503906 333.867188 C 108.085938 333.867188 108.660156 333.917969 109.230469 334.023438 C 109.800781 334.125 110.355469 334.28125 110.890625 334.484375 C 111.429688 334.6875 111.9375 334.933594 112.421875 335.230469 C 112.90625 335.523438 113.351562 335.859375 113.761719 336.234375 C 114.175781 336.609375 114.542969 337.019531 114.863281 337.460938 C 115.1875 337.902344 115.460938 338.367188 115.683594 338.859375 C 115.90625 339.347656 116.074219 339.855469 116.1875 340.375 C 116.300781 340.894531 116.355469 341.421875 116.355469 341.953125 Z M 116.355469 341.953125" stroke-linecap="round" />
</g>
		<g transform="matrix(1.33 0 0 1.33 -347.11 0.56)" clip-path="url(#CLIPPATH_82)"  >
<clipPath id="CLIPPATH_82" >
	<path transform="matrix(1 0 0 1 0.22 -0.08) translate(-47.88, -44)" id="cb8ad03ccf" clip-path="url(#undefined)" d="M 0.765625 2 L 95 2 L 95 86 L 0.765625 86 Z M 0.765625 2" stroke-linecap="round" />
</clipPath>
<path style="stroke: none; stroke-width: 1; stroke-dasharray: none; stroke-linecap: butt; stroke-dashoffset: 0; stroke-linejoin: miter; stroke-miterlimit: 4; fill: rgb(30,30,73); fill-rule: nonzero; opacity: 1;" vector-effect="non-scaling-stroke"  transform=" translate(-47.66, -44.08)" d="M 0.945312 21.863281 L 6.746094 85.957031 L 94.375 85.953125 L 75.335938 2.203125 Z M 0.945312 21.863281" stroke-linecap="round" />
</g>
		<g transform="matrix(1.33 0 0 1.33 -347.11 0.56)" clip-path="url(#CLIPPATH_83)"  >
<clipPath id="CLIPPATH_83" >
	<path transform="matrix(1 0 0 1 0.22 -0.08) translate(-47.88, -44)" id="aebe067594" clip-path="url(#undefined)" d="M 0.765625 2 L 95 2 L 95 86 L 0.765625 86 Z M 0.765625 2" stroke-linecap="round" />
</clipPath>
<path style="stroke: none; stroke-width: 1; stroke-dasharray: none; stroke-linecap: butt; stroke-dashoffset: 0; stroke-linejoin: miter; stroke-miterlimit: 4; fill: rgb(30,30,73); fill-rule: nonzero; opacity: 1;" vector-effect="non-scaling-stroke"  transform=" translate(-47.66, -44.08)" d="M 0.945312 21.863281 L 6.746094 85.957031 L 94.375 85.953125 L 75.335938 2.203125 Z M 0.945312 21.863281" stroke-linecap="round" />
</g>
		<g transform="matrix(1.33 0 0 1.33 -301.21 7.71)"  >
<path style="stroke: none; stroke-width: 1; stroke-dasharray: none; stroke-linecap: butt; stroke-dashoffset: 0; stroke-linejoin: miter; stroke-miterlimit: 4; fill: rgb(154,187,80); fill-rule: nonzero; opacity: 1;" vector-effect="non-scaling-stroke"  transform=" translate(-179.08, -422.44)" d="M 113.070312 459.105469 L 225.417969 459.105469 L 244.605469 396.289062 C 246.378906 390.480469 243.109375 385.773438 237.304688 385.773438 L 145.976562 385.773438 C 140.171875 385.773438 134.027344 390.480469 132.253906 396.289062 Z M 113.070312 459.105469" stroke-linecap="round" />
</g>
		<g transform="matrix(1.33 0 0 1.33 -298.77 5.65)"  >
<path style="stroke: none; stroke-width: 1; stroke-dasharray: none; stroke-linecap: butt; stroke-dashoffset: 0; stroke-linejoin: miter; stroke-miterlimit: 4; fill: rgb(234,148,35); fill-rule: nonzero; opacity: 1;" vector-effect="non-scaling-stroke"  transform=" translate(-180.91, -420.9)" d="M 191.132812 412.113281 C 191.558594 412.609375 191.914062 413.15625 192.199219 413.753906 C 192.488281 414.351562 192.699219 414.992188 192.832031 415.667969 C 192.96875 416.347656 193.027344 417.054688 193.007812 417.785156 C 192.988281 418.515625 192.890625 419.261719 192.71875 420.019531 C 192.542969 420.777344 192.296875 421.535156 191.976562 422.289062 C 191.652344 423.042969 191.261719 423.78125 190.804688 424.503906 C 190.347656 425.226562 189.832031 425.917969 189.257812 426.582031 C 188.683594 427.242188 188.058594 427.863281 187.386719 428.441406 C 186.714844 429.015625 186.011719 429.539062 185.269531 430.007812 C 184.527344 430.476562 183.765625 430.882812 182.984375 431.226562 C 182.199219 431.570312 181.414062 431.84375 180.617188 432.046875 C 179.824219 432.25 179.039062 432.382812 178.265625 432.441406 C 177.488281 432.496094 176.738281 432.480469 176.011719 432.390625 C 175.285156 432.296875 174.597656 432.132812 173.949219 431.898438 C 173.296875 431.660156 172.699219 431.355469 172.152344 430.980469 C 171.601562 430.609375 171.117188 430.175781 170.691406 429.679688 C 170.265625 429.183594 169.910156 428.636719 169.625 428.039062 C 169.339844 427.441406 169.128906 426.800781 168.992188 426.125 C 168.855469 425.445312 168.796875 424.738281 168.816406 424.007812 C 168.835938 423.277344 168.933594 422.53125 169.105469 421.773438 C 169.28125 421.015625 169.527344 420.257812 169.851562 419.503906 C 170.171875 418.75 170.5625 418.011719 171.019531 417.289062 C 171.476562 416.566406 171.992188 415.875 172.566406 415.210938 C 173.144531 414.550781 173.765625 413.929688 174.4375 413.351562 C 175.109375 412.777344 175.8125 412.253906 176.554688 411.785156 C 177.296875 411.316406 178.058594 410.910156 178.839844 410.566406 C 179.625 410.222656 180.414062 409.949219 181.207031 409.746094 C 182 409.542969 182.785156 409.410156 183.5625 409.351562 C 184.335938 409.296875 185.085938 409.3125 185.8125 409.402344 C 186.539062 409.496094 187.226562 409.660156 187.878906 409.894531 C 188.527344 410.132812 189.125 410.4375 189.671875 410.8125 C 190.222656 411.183594 190.707031 411.617188 191.132812 412.113281 Z M 191.132812 412.113281" stroke-linecap="round" />
</g>
		<g transform="matrix(1.33 0 0 1.33 -196.65 -84.47)"  >
<path style="stroke: none; stroke-width: 1; stroke-dasharray: none; stroke-linecap: butt; stroke-dashoffset: 0; stroke-linejoin: miter; stroke-miterlimit: 4; fill: rgb(234,148,35); fill-rule: nonzero; opacity: 1;" vector-effect="non-scaling-stroke"  transform=" translate(-257.5, -353.31)" d="M 245.933594 381.253906 L 254.011719 363.878906 L 272.148438 357.105469 C 277.238281 355.203125 281.128906 351.007812 282.636719 345.789062 L 287.355469 329.5 C 288.164062 326.703125 285.15625 324.34375 282.636719 325.804688 L 268.800781 333.816406 C 268.800781 333.816406 262.753906 329.425781 238.820312 351.175781 L 235.839844 356.804688 L 227.519531 366.90625" stroke-linecap="round" />
</g>
		<g transform="matrix(1.33 0 0 1.33 -161.33 170.76)"  >
<path style="stroke: none; stroke-width: 1; stroke-dasharray: none; stroke-linecap: butt; stroke-dashoffset: 0; stroke-linejoin: miter; stroke-miterlimit: 4; fill: rgb(154,187,80); fill-rule: nonzero; opacity: 1;" vector-effect="non-scaling-stroke"  transform=" translate(-284, -544.73)" d="M 216.539062 599.0625 C 216.824219 609.476562 217.550781 619.949219 218.691406 630.503906 L 351.582031 630.503906 C 342.617188 592.957031 341.128906 551.957031 347.371094 507.445312 C 349.398438 492.863281 339.832031 479.027344 324.371094 474.460938 L 277.074219 460.453125 C 259.875 455.371094 241.183594 463.648438 235.480469 479.113281 C 228.292969 498.570312 223.253906 518.402344 220.179688 538.546875 C 217.140625 558.433594 216 578.605469 216.539062 599.0625 Z M 216.539062 599.0625" stroke-linecap="round" />
</g>
		<g transform="matrix(1.33 0 0 1.33 -144.03 182.96)" clip-path="url(#CLIPPATH_84)"  >
<clipPath id="CLIPPATH_84" >
	<rect transform="matrix(1 0 0 1 0.53 0.12)" id="489" clip-path="url(#undefined)" x="-40.5" y="-56" rx="0" ry="0" width="81" height="112" />
</clipPath>
<path style="stroke: none; stroke-width: 1; stroke-dasharray: none; stroke-linecap: butt; stroke-dashoffset: 0; stroke-linejoin: miter; stroke-miterlimit: 4; fill: rgb(30,30,73); fill-rule: nonzero; opacity: 1;" vector-effect="non-scaling-stroke"  transform=" translate(-39.97, -55.88)" d="M 19.347656 1.96875 L 1.558594 101.675781 L 72.761719 109.785156 L 78.378906 18.335938 Z M 19.347656 1.96875" stroke-linecap="round" />
</g>
		<g transform="matrix(1.33 0 0 1.33 -144.03 182.96)" clip-path="url(#CLIPPATH_85)"  >
<clipPath id="CLIPPATH_85" >
	<rect transform="matrix(1 0 0 1 0.53 0.12)" id="ead6af5bc4" clip-path="url(#undefined)" x="-40.5" y="-56" rx="0" ry="0" width="81" height="112" />
</clipPath>
<path style="stroke: none; stroke-width: 1; stroke-dasharray: none; stroke-linecap: butt; stroke-dashoffset: 0; stroke-linejoin: miter; stroke-miterlimit: 4; fill: rgb(30,30,73); fill-rule: nonzero; opacity: 1;" vector-effect="non-scaling-stroke"  transform=" translate(-39.97, -55.88)" d="M 19.347656 1.96875 L 1.558594 101.675781 L 72.761719 109.785156 L 78.378906 18.335938 Z M 19.347656 1.96875" stroke-linecap="round" />
</g>
		<g transform="matrix(1.33 0 0 1.33 -167.6 230.85)"  >
<path style="stroke: none; stroke-width: 1; stroke-dasharray: none; stroke-linecap: butt; stroke-dashoffset: 0; stroke-linejoin: miter; stroke-miterlimit: 4; fill: rgb(234,148,35); fill-rule: nonzero; opacity: 1;" vector-effect="non-scaling-stroke"  transform=" translate(-279.29, -589.8)" d="M 237.328125 626.257812 L 338.800781 626.257812 L 338.800781 602.109375 L 275.449219 597.875 C 267.578125 597.347656 261.730469 590.371094 262.589844 582.523438 L 264.703125 563.1875 C 264.703125 563.1875 249.476562 547.15625 223.683594 556 C 221.296875 573.335938 220.03125 590.863281 219.785156 608.570312 C 219.652344 618.3125 227.59375 626.257812 237.328125 626.257812 Z M 237.328125 626.257812" stroke-linecap="round" />
</g>
		<g transform="matrix(1.33 0 0 1.33 -97.61 -6.69)"  >
<path style="stroke: none; stroke-width: 1; stroke-dasharray: none; stroke-linecap: butt; stroke-dashoffset: 0; stroke-linejoin: miter; stroke-miterlimit: 4; fill: rgb(30,30,73); fill-rule: nonzero; opacity: 1;" vector-effect="non-scaling-stroke"  transform=" translate(-331.78, -411.64)" d="M 339.742188 391.75 C 340.582031 392.085938 341.40625 392.453125 342.214844 392.851562 C 343.027344 393.25 343.820312 393.679688 344.589844 394.136719 C 345.363281 394.59375 346.113281 395.078125 346.84375 395.589844 C 347.570312 396.097656 348.273438 396.636719 348.949219 397.195312 C 349.625 397.753906 350.273438 398.335938 350.890625 398.941406 C 351.507812 399.542969 352.09375 400.167969 352.648438 400.808594 C 353.199219 401.449219 353.71875 402.109375 354.203125 402.78125 C 354.6875 403.453125 355.132812 404.140625 355.542969 404.839844 C 355.953125 405.539062 356.324219 406.246094 356.65625 406.960938 C 356.988281 407.679688 357.277344 408.402344 357.527344 409.128906 C 357.777344 409.859375 357.984375 410.589844 358.152344 411.324219 C 358.316406 412.054688 358.441406 412.789062 358.519531 413.519531 C 358.601562 414.25 358.640625 414.976562 358.632812 415.695312 C 358.628906 416.417969 358.578125 417.128906 358.488281 417.835938 C 358.394531 418.539062 358.261719 419.230469 358.082031 419.914062 C 357.90625 420.59375 357.6875 421.261719 357.425781 421.910156 C 357.167969 422.5625 356.863281 423.195312 356.523438 423.8125 C 356.179688 424.425781 355.800781 425.023438 355.382812 425.59375 C 354.960938 426.167969 354.503906 426.71875 354.011719 427.242188 C 353.519531 427.769531 352.992188 428.269531 352.429688 428.742188 C 351.867188 429.214844 351.273438 429.660156 350.648438 430.074219 C 350.019531 430.492188 349.367188 430.875 348.683594 431.230469 C 348 431.585938 347.289062 431.90625 346.554688 432.199219 C 345.820312 432.488281 345.066406 432.746094 344.289062 432.96875 C 343.507812 433.191406 342.710938 433.378906 341.898438 433.53125 C 341.082031 433.683594 340.253906 433.800781 339.410156 433.882812 C 338.566406 433.964844 337.714844 434.011719 336.851562 434.023438 C 335.988281 434.035156 335.117188 434.007812 334.242188 433.945312 C 333.367188 433.886719 332.488281 433.789062 331.609375 433.65625 C 330.730469 433.523438 329.851562 433.355469 328.976562 433.152344 C 328.105469 432.949219 327.234375 432.710938 326.375 432.441406 C 325.511719 432.171875 324.664062 431.867188 323.824219 431.53125 C 322.984375 431.195312 322.15625 430.824219 321.347656 430.425781 C 320.535156 430.027344 319.746094 429.601562 318.972656 429.144531 C 318.199219 428.6875 317.449219 428.203125 316.722656 427.691406 C 315.992188 427.179688 315.289062 426.644531 314.613281 426.085938 C 313.9375 425.523438 313.292969 424.941406 312.671875 424.339844 C 312.054688 423.734375 311.46875 423.113281 310.917969 422.472656 C 310.363281 421.828125 309.84375 421.171875 309.359375 420.5 C 308.875 419.824219 308.429688 419.140625 308.019531 418.441406 C 307.609375 417.742188 307.238281 417.035156 306.910156 416.316406 C 306.578125 415.601562 306.285156 414.878906 306.035156 414.148438 C 305.785156 413.421875 305.578125 412.691406 305.414062 411.957031 C 305.246094 411.222656 305.125 410.492188 305.042969 409.761719 C 304.960938 409.03125 304.925781 408.304688 304.929688 407.585938 C 304.9375 406.863281 304.984375 406.148438 305.078125 405.445312 C 305.167969 404.742188 305.304688 404.046875 305.480469 403.367188 C 305.65625 402.6875 305.875 402.019531 306.136719 401.367188 C 306.398438 400.714844 306.699219 400.082031 307.039062 399.46875 C 307.382812 398.851562 307.761719 398.257812 308.183594 397.683594 C 308.601562 397.113281 309.058594 396.5625 309.550781 396.035156 C 310.042969 395.511719 310.574219 395.011719 311.132812 394.539062 C 311.695312 394.066406 312.289062 393.621094 312.917969 393.203125 C 313.542969 392.789062 314.195312 392.402344 314.878906 392.050781 C 315.5625 391.695312 316.273438 391.371094 317.007812 391.082031 C 317.742188 390.792969 318.496094 390.535156 319.277344 390.3125 C 320.054688 390.089844 320.851562 389.902344 321.664062 389.75 C 322.480469 389.59375 323.308594 389.476562 324.152344 389.394531 C 324.996094 389.3125 325.847656 389.265625 326.710938 389.257812 C 327.574219 389.246094 328.445312 389.273438 329.320312 389.332031 C 330.195312 389.394531 331.074219 389.492188 331.953125 389.625 C 332.832031 389.757812 333.710938 389.925781 334.585938 390.128906 C 335.460938 390.332031 336.328125 390.566406 337.1875 390.839844 C 338.050781 391.109375 338.902344 391.414062 339.742188 391.75 Z M 339.742188 391.75" stroke-linecap="round" />
</g>
		<g transform="matrix(1.33 0 0 1.33 -133.43 5.82)"  >
<path style="stroke: none; stroke-width: 1; stroke-dasharray: none; stroke-linecap: butt; stroke-dashoffset: 0; stroke-linejoin: miter; stroke-miterlimit: 4; fill: rgb(30,30,73); fill-rule: nonzero; opacity: 1;" vector-effect="non-scaling-stroke"  transform=" translate(-304.92, -421.02)" d="M 319.824219 383.773438 C 321.089844 384.28125 322.328125 384.84375 323.539062 385.46875 C 324.753906 386.09375 325.933594 386.773438 327.078125 387.507812 C 328.226562 388.246094 329.332031 389.03125 330.402344 389.871094 C 331.472656 390.710938 332.5 391.597656 333.484375 392.535156 C 334.464844 393.46875 335.402344 394.449219 336.289062 395.46875 C 337.175781 396.492188 338.007812 397.554688 338.789062 398.652344 C 339.570312 399.753906 340.296875 400.886719 340.964844 402.050781 C 341.632812 403.21875 342.246094 404.410156 342.792969 405.632812 C 343.34375 406.851562 343.832031 408.097656 344.257812 409.359375 C 344.683594 410.625 345.046875 411.90625 345.34375 413.203125 C 345.640625 414.5 345.871094 415.804688 346.039062 417.121094 C 346.207031 418.433594 346.304688 419.753906 346.339844 421.074219 C 346.371094 422.394531 346.339844 423.710938 346.238281 425.027344 C 346.140625 426.339844 345.976562 427.648438 345.742188 428.941406 C 345.511719 430.238281 345.214844 431.515625 344.851562 432.78125 C 344.492188 434.042969 344.066406 435.285156 343.578125 436.507812 C 343.089844 437.726562 342.539062 438.917969 341.929688 440.082031 C 341.320312 441.246094 340.652344 442.378906 339.925781 443.476562 C 339.199219 444.574219 338.421875 445.632812 337.585938 446.652344 C 336.75 447.671875 335.867188 448.648438 334.929688 449.582031 C 333.996094 450.515625 333.011719 451.402344 331.984375 452.238281 C 330.957031 453.074219 329.890625 453.859375 328.78125 454.589844 C 327.671875 455.324219 326.527344 456 325.347656 456.621094 C 324.164062 457.242188 322.953125 457.804688 321.714844 458.308594 C 320.472656 458.8125 319.210938 459.257812 317.921875 459.640625 C 316.632812 460.019531 315.324219 460.339844 314 460.597656 C 312.679688 460.851562 311.34375 461.042969 309.996094 461.171875 C 308.648438 461.300781 307.296875 461.363281 305.941406 461.359375 C 304.582031 461.359375 303.230469 461.292969 301.875 461.160156 C 300.523438 461.03125 299.175781 460.835938 297.839844 460.574219 C 296.503906 460.316406 295.179688 459.992188 293.871094 459.609375 C 292.5625 459.222656 291.277344 458.777344 290.011719 458.269531 C 288.746094 457.761719 287.503906 457.199219 286.292969 456.574219 C 285.082031 455.949219 283.902344 455.269531 282.753906 454.535156 C 281.609375 453.796875 280.5 453.011719 279.429688 452.171875 C 278.359375 451.332031 277.332031 450.445312 276.351562 449.507812 C 275.367188 448.574219 274.433594 447.59375 273.546875 446.574219 C 272.660156 445.550781 271.824219 444.488281 271.042969 443.390625 C 270.261719 442.289062 269.539062 441.15625 268.867188 439.992188 C 268.199219 438.824219 267.589844 437.632812 267.039062 436.410156 C 266.488281 435.191406 266 433.945312 265.574219 432.683594 C 265.148438 431.417969 264.789062 430.136719 264.492188 428.839844 C 264.191406 427.542969 263.960938 426.238281 263.792969 424.921875 C 263.628906 423.609375 263.527344 422.289062 263.496094 420.96875 C 263.460938 419.648438 263.496094 418.332031 263.59375 417.015625 C 263.695312 415.699219 263.859375 414.394531 264.089844 413.101562 C 264.324219 411.804688 264.621094 410.527344 264.980469 409.261719 C 265.34375 407.996094 265.769531 406.757812 266.257812 405.535156 C 266.746094 404.316406 267.292969 403.125 267.902344 401.960938 C 268.511719 400.796875 269.179688 399.664062 269.90625 398.566406 C 270.632812 397.46875 271.414062 396.410156 272.246094 395.390625 C 273.082031 394.371094 273.96875 393.394531 274.902344 392.460938 C 275.839844 391.527344 276.820312 390.640625 277.847656 389.804688 C 278.875 388.96875 279.945312 388.183594 281.054688 387.453125 C 282.164062 386.71875 283.308594 386.042969 284.488281 385.421875 C 285.667969 384.800781 286.878906 384.238281 288.121094 383.734375 C 289.359375 383.230469 290.625 382.785156 291.914062 382.402344 C 293.203125 382.023438 294.507812 381.703125 295.832031 381.445312 C 297.15625 381.191406 298.492188 381 299.839844 380.871094 C 301.183594 380.742188 302.535156 380.679688 303.894531 380.683594 C 305.25 380.683594 306.605469 380.75 307.957031 380.882812 C 309.3125 381.011719 310.65625 381.207031 311.992188 381.46875 C 313.332031 381.726562 314.652344 382.050781 315.960938 382.433594 C 317.269531 382.820312 318.558594 383.265625 319.824219 383.773438 Z M 319.824219 383.773438" stroke-linecap="round" />
</g>
		<g transform="matrix(1.33 0 0 1.33 -138.15 76.07)"  >
<path style="stroke: none; stroke-width: 1; stroke-dasharray: none; stroke-linecap: butt; stroke-dashoffset: 0; stroke-linejoin: miter; stroke-miterlimit: 4; fill: rgb(234,148,35); fill-rule: nonzero; opacity: 1;" vector-effect="non-scaling-stroke"  transform=" translate(-301.38, -473.71)" d="M 286.097656 458.011719 L 284.867188 471.164062 C 289.949219 483.945312 300.257812 491.066406 314.214844 494.242188 L 317.882812 455.042969 L 298.023438 453.183594 C 295.917969 456.144531 291.550781 457.484375 286.097656 458.011719 Z M 286.097656 458.011719" stroke-linecap="round" />
</g>
		<g transform="matrix(1.33 0 0 1.33 -121.69 32.96)"  >
<path style="stroke: none; stroke-width: 1; stroke-dasharray: none; stroke-linecap: butt; stroke-dashoffset: 0; stroke-linejoin: miter; stroke-miterlimit: 4; fill: rgb(234,148,35); fill-rule: nonzero; opacity: 1;" vector-effect="non-scaling-stroke"  transform=" translate(-313.72, -441.38)" d="M 277.824219 450.191406 L 299.371094 467.742188 L 304.175781 468.773438 L 314.496094 470.945312 C 324.324219 473.007812 333.960938 468.304688 337.945312 459.464844 L 339.214844 456.628906 L 342.695312 455.167969 L 347.453125 453.195312 C 349.804688 452.21875 350.367188 449.144531 348.515625 447.199219 L 342.554688 440.929688 C 342.769531 440.390625 343 439.816406 343.175781 439.261719 C 346.746094 429.230469 345.28125 418.074219 341.25 411.328125 C 340.070312 420.625 331.660156 425.820312 322.902344 424.988281 C 322.636719 433.667969 311.816406 439.992188 306.929688 434.824219 C 304.539062 430.65625 301.75 430.160156 298.839844 430.867188 C 296.242188 431.566406 294.019531 433.21875 292.566406 435.402344 C 290.46875 438.53125 289.890625 442.089844 292.523438 446.757812 C 292.023438 447.671875 291.394531 448.355469 290.625 448.941406 C 287.765625 451.183594 283.203125 451.230469 277.824219 450.191406 Z M 277.824219 450.191406" stroke-linecap="round" />
</g>
		<g transform="matrix(1.33 0 0 1.33 -106.62 29.9)"  >
<path style="stroke: none; stroke-width: 1; stroke-dasharray: none; stroke-linecap: butt; stroke-dashoffset: 0; stroke-linejoin: miter; stroke-miterlimit: 4; fill: rgb(0,117,178); fill-rule: nonzero; opacity: 1;" vector-effect="non-scaling-stroke"  transform=" translate(-325.02, -439.09)" d="M 343.1875 431.988281 C 342.660156 429.097656 341.308594 427.210938 339.386719 426.675781 C 337.457031 426.136719 335.328125 427.054688 333.386719 429.257812 C 331.847656 430.996094 330.566406 433.429688 329.671875 436.15625 L 308.074219 431.25 C 307.421875 431.09375 306.792969 431.507812 306.644531 432.152344 C 306.496094 432.792969 306.902344 433.4375 307.546875 433.582031 L 329.042969 438.46875 C 327.589844 444.917969 328.992188 450.527344 332.480469 451.5 C 332.847656 451.601562 333.210938 451.652344 333.585938 451.652344 C 337.066406 451.652344 340.773438 447.324219 342.554688 440.929688 C 343.4375 437.753906 343.664062 434.578125 343.1875 431.988281 Z M 340.25 440.289062 C 338.589844 446.242188 335.144531 449.761719 333.125 449.195312 C 331.082031 448.625 329.964844 443.839844 331.617188 437.886719 C 332.410156 435.046875 333.671875 432.546875 335.179688 430.839844 C 336.277344 429.601562 337.386719 428.921875 338.292969 428.921875 C 338.453125 428.921875 338.601562 428.941406 338.742188 428.980469 C 339.722656 429.257812 340.488281 430.507812 340.835938 432.417969 C 341.246094 434.65625 341.035156 437.453125 340.25 440.289062 Z M 340.25 440.289062" stroke-linecap="round" />
</g>
		<g transform="matrix(1.33 0 0 1.33 -3.16 212.92)"  >
<path style="stroke: none; stroke-width: 1; stroke-dasharray: none; stroke-linecap: butt; stroke-dashoffset: 0; stroke-linejoin: miter; stroke-miterlimit: 4; fill: rgb(0,117,178); fill-rule: nonzero; opacity: 1;" vector-effect="non-scaling-stroke"  transform=" translate(-402.62, -576.35)" d="M 312.789062 626.253906 L 465.691406 626.253906 L 491.800781 540.765625 C 494.214844 532.859375 489.765625 526.449219 481.863281 526.449219 L 357.574219 526.449219 C 349.675781 526.449219 341.3125 532.859375 338.898438 540.765625 Z M 312.789062 626.253906" stroke-linecap="round" />
</g>
		<g transform="matrix(1.33 0 0 1.33 0.17 210.13)"  >
<path style="stroke: none; stroke-width: 1; stroke-dasharray: none; stroke-linecap: butt; stroke-dashoffset: 0; stroke-linejoin: miter; stroke-miterlimit: 4; fill: rgb(234,148,35); fill-rule: nonzero; opacity: 1;" vector-effect="non-scaling-stroke"  transform=" translate(-405.12, -574.25)" d="M 419.03125 562.300781 C 419.320312 562.636719 419.585938 562.992188 419.828125 563.367188 C 420.070312 563.738281 420.289062 564.128906 420.484375 564.535156 C 420.675781 564.941406 420.847656 565.359375 420.988281 565.796875 C 421.132812 566.230469 421.25 566.679688 421.34375 567.140625 C 421.4375 567.601562 421.503906 568.070312 421.542969 568.550781 C 421.582031 569.03125 421.59375 569.523438 421.582031 570.019531 C 421.570312 570.515625 421.53125 571.019531 421.464844 571.527344 C 421.398438 572.035156 421.304688 572.546875 421.1875 573.0625 C 421.070312 573.574219 420.925781 574.089844 420.757812 574.605469 C 420.585938 575.121094 420.394531 575.636719 420.175781 576.148438 C 419.957031 576.660156 419.714844 577.167969 419.449219 577.671875 C 419.183594 578.175781 418.894531 578.671875 418.585938 579.164062 C 418.273438 579.652344 417.941406 580.136719 417.589844 580.605469 C 417.238281 581.078125 416.867188 581.539062 416.476562 581.988281 C 416.085938 582.4375 415.679688 582.875 415.253906 583.296875 C 414.828125 583.71875 414.386719 584.128906 413.933594 584.519531 C 413.476562 584.910156 413.007812 585.285156 412.527344 585.640625 C 412.046875 585.996094 411.550781 586.335938 411.050781 586.652344 C 410.546875 586.972656 410.035156 587.269531 409.515625 587.546875 C 408.996094 587.824219 408.46875 588.078125 407.9375 588.3125 C 407.40625 588.542969 406.871094 588.753906 406.335938 588.941406 C 405.796875 589.128906 405.257812 589.289062 404.71875 589.429688 C 404.179688 589.566406 403.644531 589.683594 403.109375 589.769531 C 402.574219 589.859375 402.042969 589.925781 401.515625 589.964844 C 400.988281 590.003906 400.46875 590.015625 399.957031 590.003906 C 399.445312 589.992188 398.941406 589.957031 398.449219 589.894531 C 397.957031 589.832031 397.476562 589.746094 397.007812 589.632812 C 396.539062 589.523438 396.082031 589.386719 395.640625 589.222656 C 395.199219 589.0625 394.777344 588.878906 394.367188 588.671875 C 393.957031 588.464844 393.570312 588.230469 393.195312 587.980469 C 392.824219 587.726562 392.472656 587.449219 392.140625 587.15625 C 391.808594 586.859375 391.5 586.542969 391.210938 586.207031 C 390.921875 585.871094 390.65625 585.515625 390.414062 585.140625 C 390.171875 584.769531 389.953125 584.378906 389.757812 583.972656 C 389.5625 583.566406 389.394531 583.148438 389.25 582.710938 C 389.105469 582.277344 388.988281 581.828125 388.898438 581.367188 C 388.804688 580.90625 388.738281 580.4375 388.699219 579.957031 C 388.660156 579.476562 388.644531 578.984375 388.660156 578.488281 C 388.671875 577.992188 388.710938 577.488281 388.777344 576.980469 C 388.84375 576.472656 388.933594 575.960938 389.054688 575.445312 C 389.171875 574.933594 389.316406 574.417969 389.484375 573.902344 C 389.652344 573.386719 389.847656 572.871094 390.066406 572.359375 C 390.285156 571.847656 390.527344 571.339844 390.792969 570.835938 C 391.058594 570.332031 391.347656 569.835938 391.65625 569.34375 C 391.964844 568.855469 392.296875 568.371094 392.648438 567.898438 C 393.003906 567.429688 393.375 566.96875 393.765625 566.519531 C 394.15625 566.066406 394.5625 565.632812 394.988281 565.210938 C 395.414062 564.785156 395.851562 564.378906 396.308594 563.988281 C 396.765625 563.597656 397.234375 563.222656 397.714844 562.867188 C 398.195312 562.511719 398.6875 562.171875 399.191406 561.855469 C 399.695312 561.535156 400.207031 561.238281 400.726562 560.960938 C 401.246094 560.683594 401.769531 560.429688 402.300781 560.195312 C 402.835938 559.964844 403.367188 559.753906 403.90625 559.566406 C 404.445312 559.378906 404.984375 559.21875 405.523438 559.078125 C 406.0625 558.941406 406.597656 558.824219 407.132812 558.738281 C 407.667969 558.648438 408.199219 558.582031 408.726562 558.542969 C 409.253906 558.503906 409.769531 558.492188 410.285156 558.503906 C 410.796875 558.515625 411.296875 558.550781 411.789062 558.613281 C 412.285156 558.675781 412.765625 558.761719 413.234375 558.875 C 413.703125 558.984375 414.160156 559.121094 414.601562 559.28125 C 415.039062 559.445312 415.464844 559.628906 415.875 559.835938 C 416.28125 560.042969 416.671875 560.273438 417.042969 560.527344 C 417.417969 560.78125 417.769531 561.058594 418.101562 561.351562 C 418.433594 561.648438 418.742188 561.964844 419.03125 562.300781 Z M 419.03125 562.300781" stroke-linecap="round" />
</g>
		<g transform="matrix(1.33 0 0 1.33 150.29 178.51)"  >
<path style="stroke: none; stroke-width: 1; stroke-dasharray: none; stroke-linecap: butt; stroke-dashoffset: 0; stroke-linejoin: miter; stroke-miterlimit: 4; fill: rgb(154,187,80); fill-rule: nonzero; opacity: 1;" vector-effect="non-scaling-stroke"  transform=" translate(-517.71, -550.54)" d="M 495.554688 595.171875 L 496.601562 519.757812 L 507.0625 583.6875 L 509.597656 505.914062 L 518.699219 578.804688 L 525.683594 511.863281 L 528.21875 579.164062 L 539.859375 522.261719 L 536.183594 595.171875 Z M 495.554688 595.171875" stroke-linecap="round" />
</g>
		<g transform="matrix(1.33 0 0 1.33 147.26 247.51)"  >
<path style="stroke: none; stroke-width: 1; stroke-dasharray: none; stroke-linecap: butt; stroke-dashoffset: 0; stroke-linejoin: miter; stroke-miterlimit: 4; fill: rgb(234,148,35); fill-rule: nonzero; opacity: 1;" vector-effect="non-scaling-stroke"  transform=" translate(-515.43, -602.29)" d="M 534.195312 628.234375 L 496.671875 628.234375 L 489.503906 576.351562 L 541.363281 576.351562 Z M 534.195312 628.234375" stroke-linecap="round" />
</g>
		<g transform="matrix(1.33 0 0 1.33 -167.6 268.47)"  >
<path style="stroke: none; stroke-width: 1; stroke-dasharray: none; stroke-linecap: butt; stroke-dashoffset: 0; stroke-linejoin: miter; stroke-miterlimit: 4; fill: rgb(0,117,178); fill-rule: nonzero; opacity: 1;" vector-effect="non-scaling-stroke"  transform=" translate(-279.29, -618.01)" d="M 306.054688 628.234375 L 252.53125 628.234375 C 252.035156 628.234375 251.636719 627.835938 251.636719 627.339844 L 251.636719 622.308594 C 251.636719 614.285156 258.132812 607.785156 266.152344 607.785156 L 290.082031 607.785156 C 299.398438 607.785156 306.949219 615.34375 306.949219 624.664062 L 306.949219 627.339844 C 306.949219 627.835938 306.550781 628.234375 306.054688 628.234375 Z M 306.054688 628.234375" stroke-linecap="round" />
</g>
		<g transform="matrix(1.33 0 0 1.33 -49.22 291.61)"  >
<path style="stroke: none; stroke-width: 1; stroke-dasharray: none; stroke-linecap: butt; stroke-dashoffset: 0; stroke-linejoin: miter; stroke-miterlimit: 4; fill: rgb(30,30,73); fill-rule: nonzero; opacity: 1;" vector-effect="non-scaling-stroke"  transform=" translate(-368.08, -635.37)" d="M 574.707031 644.488281 L 161.449219 644.488281 C 157.074219 644.488281 153.53125 640.941406 153.53125 636.566406 L 153.53125 634.175781 C 153.53125 629.800781 157.074219 626.253906 161.449219 626.253906 L 574.707031 626.253906 C 579.078125 626.253906 582.625 629.800781 582.625 634.175781 L 582.625 636.566406 C 582.625 640.941406 579.078125 644.488281 574.707031 644.488281 Z M 574.707031 644.488281" stroke-linecap="round" />
</g>
		<g transform="matrix(1.33 0 0 1.33 -142.17 36.86)"  >
<path style="stroke: none; stroke-width: 1; stroke-dasharray: none; stroke-linecap: butt; stroke-dashoffset: 0; stroke-linejoin: miter; stroke-miterlimit: 4; fill: rgb(30,30,73); fill-rule: nonzero; opacity: 1;" vector-effect="non-scaling-stroke"  transform=" translate(-298.36, -444.3)" d="M 303.257812 445.703125 C 304.277344 444.542969 304.917969 443.042969 304.917969 441.378906 C 304.917969 437.753906 301.980469 434.816406 298.359375 434.816406 C 294.738281 434.816406 291.800781 437.753906 291.800781 441.378906 C 291.800781 445 294.738281 447.9375 298.359375 447.9375 C 298.511719 447.9375 298.660156 447.902344 298.8125 447.894531 L 300.050781 452.042969 C 300.4375 453.335938 301.800781 454.070312 303.09375 453.683594 C 304.386719 453.292969 305.121094 451.933594 304.734375 450.640625 Z M 303.257812 445.703125" stroke-linecap="round" />
</g>
</g>
</g>
</svg>